<?xml version="1.0" encoding="UTF-8"?>
<svg id="Lag_1" data-name="Lag 1" xmlns="http://www.w3.org/2000/svg" xmlns:xlink="http://www.w3.org/1999/xlink" viewBox="0 0 552.25 531.08">
  <defs>
    <style>
      .cls-1 {
        fill: #a78d80;
      }

      .cls-2 {
        fill: #ccc2bc;
      }

      .cls-3 {
        fill: #d6a5a5;
      }

      .cls-4 {
        fill: #b2a6a1;
      }

      .cls-5 {
        fill: #5b493f;
      }

      .cls-6 {
        fill: #725757;
      }

      .cls-7 {
        fill: #c1a097;
      }

      .cls-8 {
        fill: #d8baa9;
      }

      .cls-9 {
        fill: #1c140c;
      }

      .cls-10 {
        fill: #8e4a52;
      }

      .cls-11 {
        fill: url(#Ikke-navngivet_forløb_116);
      }

      .cls-12 {
        fill: url(#Ikke-navngivet_forløb_115);
      }

      .cls-13 {
        fill: #2b143f;
      }

      .cls-14 {
        fill: #fff;
      }

      .cls-15 {
        fill: #7c0808;
      }

      .cls-16 {
        fill: #6b2228;
      }

      .cls-17 {
        fill: #e8a299;
      }

      .cls-18 {
        fill: #3d1f54;
      }

      .cls-19 {
        fill: #736357;
      }

      .cls-20 {
        fill: #664f4f;
      }

      .cls-21 {
        fill: #edcaaf;
      }

      .cls-22 {
        fill: #8dc4c2;
      }

      .cls-23 {
        fill: #42352f;
      }

      .cls-24 {
        fill: #968a86;
      }
    </style>
    <radialGradient id="Ikke-navngivet_forløb_115" data-name="Ikke-navngivet forløb 115" cx="53.41" cy="107.34" fx="53.41" fy="107.34" r="16.95" gradientTransform="translate(71.13 59.45) scale(.93 .57)" gradientUnits="userSpaceOnUse">
      <stop offset=".2" stop-color="#ff7bac" stop-opacity=".4"/>
      <stop offset=".28" stop-color="#ff7bac" stop-opacity=".35"/>
      <stop offset=".77" stop-color="#ff7bac" stop-opacity=".1"/>
      <stop offset="1" stop-color="#ff7bac" stop-opacity="0"/>
    </radialGradient>
    <radialGradient id="Ikke-navngivet_forløb_116" data-name="Ikke-navngivet forløb 116" cx="136.47" cy="114.35" fx="136.47" fy="114.35" r="16.95" gradientTransform="translate(59.04 50.62) scale(.95 .6)" gradientUnits="userSpaceOnUse">
      <stop offset=".21" stop-color="#ff7bac" stop-opacity=".4"/>
      <stop offset=".3" stop-color="#ff7bac" stop-opacity=".35"/>
      <stop offset=".77" stop-color="#ff7bac" stop-opacity=".1"/>
      <stop offset="1" stop-color="#ff7bac" stop-opacity="0"/>
    </radialGradient>
  </defs>
  <g>
    <g>
      <path class="cls-23" d="M73.39,163.36c-16.31-20.2-25.19-41.48-28.9-66.32s2.63-52.1,20.62-69.46c10.94-10.56,25.3-16.82,39.85-21.04,32.73-9.5,68.99-9.36,99.85,5.18,30.86,14.54,55.21,44.7,58.47,78.91,1.92,20.23-3.27,40.37-5.66,60.56s-1.42,42.3,10.87,58.4c11.87,15.54,31.55,22.14,48.68,31.4,17.13,9.27,34.09,25.46,32.02,44.97-1.41,13.3-11.62,25.17-10.01,38.45,1.36,11.12,10.59,19.41,15.17,29.61,9.86,21.93-3.52,47.62-20.52,64.53-30.7,30.55-73.64,46.63-116.63,49.88-42.99,3.25-86.15-5.52-127.04-19.31-23.58-7.95-47.2-17.97-65.15-35.34S-4.29,370.3,1.54,345.9c5.41-22.65,24.11-39.83,31.58-61.88,4.92-14.52,4.67-30.24,4.46-45.59s-.26-31.1,5.02-45.49,35.24-13.88,25.61-36.32"/>
      <path class="cls-23" d="M295.81,230.61c12.72-.44,25.3-4.7,35.71-12.09-8.11,6.17-16.23,12.34-24.34,18.52"/>
      <path class="cls-23" d="M353.35,352.63c10.01,17.44,27.01,29.6,45.3,32.39-16.51.73-33.03,1.46-49.54,2.19"/>
      <path class="cls-23" d="M38.47,222.07c-4.99,14.98-13.23,28.85-23.97,40.35,10.39-4.01,19.16-12.15,24-22.26"/>
    </g>
    <g>
      <path class="cls-21" d="M146.22,158.57c.65,13.39-8.47,26.63-20.97,30.43-5.73,1.74-13.31,2.91-14.54,8.93-.34,1.65-.06,3.36.32,5,3.91,16.71,19.17,29.37,35.73,31.63,16.55,2.25,33.63-5.09,45.19-17.49,3.52-3.78,6.67-8.18,7.77-13.3s-.28-11.05-4.38-14.16c-6.34-4.8-15.76-1.19-22.85-4.7-4.62-2.29-7.49-7.34-8.54-12.51s-.54-10.52-.02-15.77"/>
      <path class="cls-21" d="M144.72,158.57c.34,8.12-2.89,16.12-8.54,21.92-2.71,2.78-6,5.09-9.64,6.48-3.34,1.27-6.9,1.86-10.21,3.25-3.13,1.31-6.03,3.42-6.95,6.85-1.1,4.12.77,8.98,2.38,12.75,3.1,7.25,8.35,13.45,14.72,18.07s14.24,7.65,22.25,8.38c8.72.79,17.51-1.03,25.46-4.61s15.42-9.18,20.99-16.02,8.9-15.65,4.3-23.55c-2.08-3.58-5.68-5.65-9.69-6.34s-8.25-.26-12.33-.91-7.5-2.84-9.67-6.51c-2.47-4.17-3.03-9.03-2.92-13.79.06-2.65.32-5.28.57-7.92.19-1.92-2.81-1.91-3,0-.88,8.99-1.5,19.21,5.09,26.36,2.78,3.02,6.45,4.44,10.46,4.93s8,.05,11.9.9,6.77,3.22,8,7,.71,8.13-1.05,11.82c-1.88,3.95-4.78,7.33-7.89,10.36s-6.45,5.61-10.11,7.83c-14.01,8.52-31.7,10.5-46.33,2.34-6.68-3.73-12.39-9.2-16.17-15.87-1.91-3.37-3.39-7.09-4.08-10.91-.34-1.89-.24-3.87.95-5.45.94-1.25,2.33-2.07,3.72-2.72,3.1-1.45,6.54-1.98,9.75-3.1,3.62-1.26,6.92-3.25,9.81-5.77,5.8-5.05,9.82-12.31,10.93-19.93.28-1.94.4-3.88.32-5.84s-3.08-1.93-3,0h0Z"/>
    </g>
    <g>
      <ellipse class="cls-18" cx="123.42" cy="250.89" rx="48.92" ry="54.24"/>
      <ellipse class="cls-18" cx="161.59" cy="250.89" rx="48.92" ry="54.24"/>
      <ellipse class="cls-18" cx="199.76" cy="250.89" rx="48.92" ry="54.24"/>
    </g>
    <path class="cls-18" d="M129.56,283.06c1.15,13.55-2.31,27.02-6.01,40.03-5.49,19.3-11.6,38.4-17.71,57.48-16.96,53.01-30.54,103.74-59.88,150.12l216.31.4c-32.75-64.64-55.51-135.08-67.07-207.6-2.03-12.7-3.71-25.59-2.67-38.43"/>
    <g>
      <path class="cls-13" d="M128.51,306.27c2.27.58,4.39-1.13,6.25-2.2s3.88-2.26,5.77-3.46c3.76-2.38,7.39-4.99,10.69-7.99,6.05-5.5,10.95-12.5,12.84-20.54.44-1.88-2.45-2.68-2.89-.8-1.71,7.28-6.03,13.57-11.44,18.64-2.95,2.76-6.2,5.17-9.58,7.37-1.75,1.14-3.54,2.23-5.35,3.28-.9.53-1.81,1.05-2.72,1.56-.7.39-1.94,1.45-2.77,1.24-1.87-.48-2.67,2.42-.8,2.89h0Z"/>
      <path class="cls-13" d="M163,270.1c-5.68-2.03-11.16-4.54-16.43-7.47l.3,2.36c1.29-1.33,2.59-2.66,3.88-3.99l-1.82.23c4.88,2.48,9.95,4.59,15.14,6.31l-.66-2.51c-1.22,1.4-2.1,3.01-2.54,4.82s2.43,2.68,2.89.8c.32-1.3.88-2.48,1.77-3.49.76-.87.45-2.14-.66-2.51-4.96-1.64-9.77-3.64-14.43-6.01-.59-.3-1.34-.26-1.82.23-1.29,1.33-2.59,2.66-3.88,3.99-.66.68-.55,1.88.3,2.36,5.49,3.06,11.23,5.65,17.15,7.77,1.82.65,2.6-2.25.8-2.89h0Z"/>
      <path class="cls-13" d="M147.8,263.02c-10.96-10.27-27.65-13.69-41.7-8.26-1.78.69-1.01,3.59.8,2.89,13.06-5.05,28.55-2.1,38.79,7.49,1.41,1.32,3.53-.8,2.12-2.12h0Z"/>
    </g>
    <g>
      <path class="cls-13" d="M194.74,303.39c-.76.17-1.88-.67-2.5-.99-.8-.41-1.6-.82-2.4-1.23-1.66-.86-3.3-1.75-4.93-2.69-3.15-1.82-6.23-3.79-9.05-6.1-5.15-4.22-9.58-9.58-11.3-16.12-.49-1.87-3.38-1.07-2.89.8,1.92,7.31,6.92,13.38,12.76,18,3.18,2.52,6.6,4.7,10.14,6.68,1.83,1.02,3.69,2,5.56,2.95,1.7.87,3.43,2.05,5.41,1.6,1.88-.43,1.09-3.32-.8-2.89h0Z"/>
      <path class="cls-13" d="M163.52,277.99c5.59-1.8,11.05-4.01,16.31-6.63.85-.42.98-1.73.3-2.36-1.23-1.13-2.46-2.26-3.69-3.39-.54-.49-1.18-.52-1.82-.23-4.44,2.02-9.02,3.71-13.69,5.09-1.09.32-1.46,1.69-.66,2.51s1.35,1.76,1.66,2.87c.51,1.86,3.41,1.07,2.89-.8-.44-1.6-1.28-3.01-2.43-4.2l-.66,2.51c4.92-1.46,9.73-3.26,14.41-5.39l-1.82-.23c1.23,1.13,2.46,2.26,3.69,3.39l.3-2.36c-5.03,2.51-10.24,4.61-15.59,6.33-1.83.59-1.05,3.49.8,2.89h0Z"/>
      <path class="cls-13" d="M179.26,271.26c9.97-8.36,24.6-10.51,36.78-6.31,1.83.63,2.61-2.27.8-2.89-13.24-4.57-28.93-1.95-39.7,7.08-1.48,1.24.65,3.35,2.12,2.12h0Z"/>
    </g>
    <ellipse class="cls-21" cx="161.81" cy="252.43" rx="11.21" ry="7.49" transform="translate(-137.49 234.58) rotate(-53.93)"/>
    <ellipse class="cls-21" cx="165.52" cy="259.16" rx="7.52" ry="11.17" transform="translate(-141.81 269.63) rotate(-59.39)"/>
    <path class="cls-9" d="M163.39,173.02c.74.31,1.05.98,1.19,1.73.1.52.08,1.31.56,1.66.33.24.8.17,1.17.09.03,0,.02-.84.02-.73,0-.59,0-1.18,0-1.77s0-1.18,0-1.77v-.39c0-.11,0-.23-.02-.34-.61-.44-1.09-1.03-1.41-1.72,0,.07-.01.14,0,.22,0,.17,0,.34,0,.52,0,.59,0,1.18,0,1.77s0,1.18,0,1.77v.39c0,.11,0,.23.02.34.31.69.79,1.28,1.41,1.72v-5c-.35.08-.76.14-1.09-.03-.24-.13-.37-.38-.45-.63-.19-.64-.16-1.34-.47-1.95-.2-.4-.52-.69-.93-.86,0,0-.02.84-.02.73,0,.59,0,1.18,0,1.77s0,1.18,0,1.77v.39c0,.11,0,.23.02.34h0Z"/>
    <path class="cls-9" d="M142.6,173.75c.18,2.29,2.18.31,2.89-.58.46-.58.96-1.45,1.82-1.15s1.34,1.17,1.7,1.91c.71,1.45.92-5.65,0-4.28-.07.1-.1.22-.17.33-.13.18-.31.32-.5.44-.48.3-1.08.43-1.63.47-.87.06-2.33-.09-2.48-1.18l.02,4.27v-.2c0,.24-.01.49-.02.73.33-1.84,3.91-2.71,5.42-2.12,1.12.44,3.43,4.51,4.94,3.13.35-.32.34-.87.36-1.31.05-1.31.02-2.62,0-3.93-.01-1.09-.32-2.16-1.67-2.01-1.71.19-1.48,2-1.49,3.24,0,1.41-.48,3.37.82,4.32s3.11,1.15,4.67,1.15c1.02,0,2.04-.13,3.04-.32.43-.08.86-.19,1.29-.3.24-.06.47-.13.71-.2.39-.12.55-.35.58.22v-4.91c-.07.64-.48,1.23-1.13,1.4-.56.14-1.28-.17-1.31-.83v4.91c.12-.86,1.38-1.39,2.03-1.81.91-.58,1.97-1.26,2.18-2.4.15-.78.02-1.71.02-2.5s-.17-1.73-.02-2.5c-.19,1.03-1.08,1.67-1.9,2.21-.66.44-1.82.91-2.21,1.66-.24.46-.13,1.08-.13,1.58,0,1.19-.16,2.49.01,3.67.14.98,1.06,1.35,1.86.73.4-.32.55-.72.6-1.21.12-1.2.02-2.47.01-3.67,0-.38.1-1.01-.03-1.38-.14-.43.13-.22-.4-.22-.79,0-1.74.48-2.55.63-1.73.3-3.54.39-5.26-.01-1.03-.24-2.71-.81-2.87-2.04v5c.17-1.7,2.96-1.94,3.11-.13v-5c-.15,1.71-1.65,1.16-2.6.4-1.04-.84-1.64-2.35-3.04-2.67-1.23-.28-2.84.22-3.91.84-1.71.99-1.19,3.05-1.18,4.76,0,1.15-.29,2.37.97,2.84.81.3,1.83.24,2.63-.05.98-.35,1.27-.93,1.28-1.93.02-1.41.07-2.84,0-4.25-.03-.53-.16-.92-.48-1.36-.41-.55-1.19-1.42-1.97-1.13-.68.25-1.11,1.18-1.57,1.69-.79.88-2.31,1.98-2.46.06.13,1.65-.13,3.34,0,5h0Z"/>
    <path class="cls-9" d="M144.3,173.28l.94-2.71c.12-.35.03-.84-.15-1.16s-.54-.61-.9-.69c-.38-.09-.81-.07-1.16.15s-.56.51-.69.9l-.94,2.71c-.12.35-.03.84.15,1.16s.54.61.9.69c.38.09.81.07,1.16-.15s.56-.51.69-.9h0Z"/>
    <path class="cls-9" d="M158.6,173.58c1.93,0,1.93-3,0-3s-1.93,3,0,3h0Z"/>
    <path class="cls-9" d="M159.42,171.52c1.93,0,1.93-3,0-3s-1.93,3,0,3h0Z"/>
    <path class="cls-9" d="M161.33,172.48c1.93,0,1.93-3,0-3s-1.93,3,0,3h0Z"/>
    <path class="cls-9" d="M155.33,170.28c1.93,0,1.93-3,0-3s-1.93,3,0,3h0Z"/>
    <path class="cls-9" d="M151.92,169.73c1.93,0,1.93-3,0-3s-1.93,3,0,3h0Z"/>
    <path class="cls-9" d="M165.01,176.89c1.93,0,1.93-3,0-3s-1.93,3,0,3h0Z"/>
    <path class="cls-9" d="M163.65,177.99c1.93,0,1.93-3,0-3s-1.93,3,0,3h0Z"/>
    <path class="cls-9" d="M150.15,174.68c1.93,0,1.93-3,0-3s-1.93,3,0,3h0Z"/>
    <path class="cls-9" d="M164.06,173.17c1.93,0,1.93-3,0-3s-1.93,3,0,3h0Z"/>
    <path class="cls-9" d="M142.24,176.34c1.93,0,1.93-3,0-3s-1.93,3,0,3h0Z"/>
    <path class="cls-9" d="M144.01,176.89c1.93,0,1.93-3,0-3s-1.93,3,0,3h0Z"/>
    <path class="cls-9" d="M155.06,173.86c1.93,0,1.93-3,0-3s-1.93,3,0,3h0Z"/>
    <path class="cls-9" d="M156.42,172.21c1.93,0,1.93-3,0-3s-1.93,3,0,3h0Z"/>
    <path class="cls-9" d="M157.51,172.21c1.93,0,1.93-3,0-3s-1.93,3,0,3h0Z"/>
    <path class="cls-9" d="M163.65,171.38c1.93,0,1.93-3,0-3s-1.93,3,0,3h0Z"/>
    <path class="cls-9" d="M162.28,172.21c1.93,0,1.93-3,0-3s-1.93,3,0,3h0Z"/>
    <path class="cls-9" d="M151.65,176.47c1.93,0,1.93-3,0-3s-1.93,3,0,3h0Z"/>
    <path class="cls-9" d="M149.6,176.61c1.93,0,1.93-3,0-3s-1.93,3,0,3h0Z"/>
    <path class="cls-9" d="M144.72,170.44c1.93,0,1.93-3,0-3s-1.93,3,0,3h0Z"/>
    <path class="cls-9" d="M163.92,176.04c1.93,0,1.93-3,0-3s-1.93,3,0,3h0Z"/>
    <path class="cls-21" d="M220.88,102.74c-9.64,32.08-29.87,56.88-66.71,56.88s-57.81-26.25-66.71-56.88c-9.67-33.3,29.87-58.33,66.71-58.33s76.68,25.12,66.71,58.33Z"/>
    <g>
      <path class="cls-5" d="M140.08,98.47c-10.42,5.59-22.99,6.91-34.41,3.95-1.87-.48-2.67,2.41-.8,2.89,12.21,3.16,25.59,1.72,36.72-4.25,1.7-.91.19-3.5-1.51-2.59h0Z"/>
      <path class="cls-5" d="M104.27,104.29c-.07.11-.13.23-.21.33-.03.04-.07.08-.09.13.05-.08.22-.27.06-.08s-.32.36-.5.52c-.05.05-.1.09-.15.13-.19.17.23-.16.08-.06-.1.07-.2.15-.31.21-.22.15-.46.28-.7.39-.05.02-.1.05-.15.07-.17.08.33-.13.08-.04-.12.05-.24.09-.36.13-.26.08-.52.15-.79.2-.06.01-.11.02-.17.03-.3.05.28-.03.1-.01-.13,0-.26.03-.39.03-.29.01-.58,0-.87-.02-.78-.07-1.53.74-1.5,1.5.04.87.66,1.42,1.5,1.5,2.68.24,5.61-1.09,6.97-3.46.39-.68.18-1.67-.54-2.05s-1.64-.19-2.05.54h0Z"/>
      <path class="cls-5" d="M113.62,105.64c-.15.3-.33.57-.53.84l.23-.3c-.34.43-.73.82-1.16,1.15l.3-.23c-.47.36-.98.65-1.52.89l.36-.15c-.47.2-.95.34-1.45.44-.77.15-1.28,1.11-1.05,1.85.27.82,1.02,1.21,1.85,1.05,2.28-.45,4.48-1.92,5.57-4.01.36-.7.2-1.66-.54-2.05-.69-.36-1.67-.21-2.05.54h0Z"/>
      <path class="cls-5" d="M123.83,105.5c-.04.1-.07.19-.11.29l.15-.36c-.22.5-.5.97-.83,1.4l.23-.3c-.37.48-.81.9-1.28,1.27l.3-.23c-.53.41-1.11.74-1.73,1l.36-.15c-.13.05-.25.1-.38.15-.37.13-.69.34-.9.69-.19.32-.27.8-.15,1.16.23.72,1.06,1.33,1.85,1.05,1.25-.45,2.38-1.11,3.35-2.03s1.6-1.95,2.04-3.13c.13-.35.03-.85-.15-1.16s-.54-.61-.9-.69c-.38-.09-.81-.07-1.16.15s-.55.51-.69.9h0Z"/>
      <path class="cls-5" d="M134.16,102.56c-.07.4-.18.79-.33,1.16l.15-.36c-.19.44-.43.86-.72,1.24l.23-.3c-.23.29-.48.56-.76.81s-.44.7-.44,1.06.16.81.44,1.06.66.46,1.06.44.75-.16,1.06-.44c.57-.51,1.06-1.12,1.44-1.78s.64-1.36.76-2.09c.07-.41.07-.78-.15-1.16-.18-.31-.54-.61-.9-.69-.38-.09-.81-.07-1.16.15-.31.2-.63.52-.69.9h0Z"/>
    </g>
    <g>
      <path class="cls-5" d="M204.58,100.37c-11.53,3.73-24.52,3.15-35.57-1.9-1.74-.8-3.27,1.79-1.51,2.59,11.78,5.38,25.55,6.18,37.88,2.2,1.83-.59,1.05-3.49-.8-2.89h0Z"/>
      <path class="cls-5" d="M202.12,104.19c1.39,2.41,4.38,3.77,7.11,3.52.41-.04.76-.14,1.06-.44.26-.26.46-.69.44-1.06-.03-.75-.66-1.58-1.5-1.5-.28.03-.56.03-.85.02-.13,0-.27-.02-.4-.03-.27-.02.28.05.09.01-.06-.01-.12-.02-.18-.03-.28-.05-.55-.12-.81-.2-.13-.04-.25-.08-.37-.13-.23-.09-.01-.03.08.04-.06-.04-.14-.06-.2-.09-.23-.11-.46-.24-.68-.38-.11-.07-.21-.14-.32-.22-.24-.17.2.17.07.05-.05-.05-.11-.09-.16-.14-.19-.16-.36-.34-.52-.53-.03-.03-.2-.25-.04-.04s0-.01-.03-.04c-.08-.11-.15-.23-.21-.34-.39-.68-1.37-.98-2.05-.54s-.96,1.32-.54,2.05h0Z"/>
      <path class="cls-5" d="M192.53,105.58c1.11,2.13,3.36,3.63,5.69,4.09.4.08.79.06,1.16-.15.31-.18.61-.54.69-.9.17-.74-.22-1.68-1.05-1.85-.51-.1-1.01-.25-1.49-.45l.36.15c-.58-.25-1.12-.56-1.62-.95l.3.23c-.42-.33-.8-.71-1.14-1.13l.23.3c-.21-.27-.39-.56-.55-.86-.36-.7-1.39-.96-2.05-.54-.71.46-.93,1.31-.54,2.05h0Z"/>
      <path class="cls-5" d="M181.75,104.71c.45,1.21,1.14,2.3,2.08,3.19s2.14,1.6,3.42,2.06c.35.13.84.03,1.16-.15s.61-.54.69-.9c.19-.84-.26-1.56-1.05-1.85-.15-.06-.31-.11-.46-.18l.36.15c-.61-.26-1.18-.6-1.71-1l.3.23c-.49-.38-.93-.81-1.32-1.3l.23.3c-.34-.44-.63-.92-.85-1.43l.15.36c-.04-.1-.08-.2-.12-.29-.14-.37-.34-.69-.69-.9-.32-.19-.8-.27-1.16-.15-.72.23-1.34,1.06-1.05,1.85h0Z"/>
      <path class="cls-5" d="M171.09,102.98c.12.74.41,1.48.78,2.13s.89,1.3,1.47,1.82c.3.27.65.44,1.06.44.37,0,.81-.16,1.06-.44s.46-.66.44-1.06-.14-.8-.44-1.06-.54-.53-.78-.83l.23.3c-.3-.39-.55-.82-.74-1.27l.15.36c-.16-.38-.27-.78-.34-1.19-.06-.35-.4-.73-.69-.9-.32-.19-.8-.27-1.16-.15s-.71.34-.9.69l-.15.36c-.07.27-.07.53,0,.8h0Z"/>
    </g>
    <path class="cls-17" d="M139.05,135.37c-.66-1.52-.58-3.28.22-4.73,1.42-2.57,5.51-7.68,8.97-7.68,4.45,0,2.96.75,5.93.75,2.42,0-1.35.14,0,0s4.27-2.04,7.92.37c1.71,1.13,4.66,3.47,6.58,8.43,2.34,6.05-8.47,12.82-13.55,12.82-8.54.84-14.21-5.64-16.07-9.96Z"/>
    <path class="cls-12" d="M103.53,122.06c-.77-1.05-.68-2.25.26-3.25,1.67-1.77,4.55-5.35,8.55-5.76,5.58-.57,2.79-.57,7.44-.57,2.83,0,6.32-.12,7.44.57,1.86,1.14,1.84.87,3.3,1.26,2.56.68,5.46,2.38,7.7,5.78,2.74,4.15-9.92,8.8-15.87,8.8-10.01.58-16.64-3.87-18.83-6.83Z"/>
    <path class="cls-11" d="M170.99,120.25c-.79-1.09-.69-2.35.26-3.39,1.7-1.85,4.64-5.6,8.73-6.02,5.7-.6,2.85-.6,7.6-.6,2.89,0,6.45-.12,7.6.6,1.9,1.19,1.88.91,3.37,1.31,2.61.71,5.57,2.49,7.86,6.05,2.79,4.34-10.13,9.2-16.2,9.2-10.21.6-16.99-4.05-19.22-7.14Z"/>
    <path class="cls-14" d="M149.66,134.26l4.15-1.44,4.34,1.44-2.21.95c-1.36.58-2.9.57-4.25-.03l-2.03-.91Z"/>
    <ellipse class="cls-1" cx="150.61" cy="118.65" rx="1.21" ry=".77" transform="translate(-32.29 61.14) rotate(-20.78)"/>
    <ellipse class="cls-1" cx="156.53" cy="118.65" rx=".77" ry="1.21" transform="translate(-9.93 222.92) rotate(-69.22)"/>
    <path class="cls-23" d="M119.89,48.6c18.18,14.86,40.34,23.72,62.12,32.36-4.35-3.91-7.07-9.61-7.39-15.48-1.06,1.86,1.06,3.9,2.92,4.94,21.49,12.05,43.34,9.9,65.58,45.81-8.45-18.67-17.52-58.57-34.81-69.37-5.83-3.64-12.04-6.62-18.25-9.55-6.79-3.2-13.66-6.38-20.97-8.03-7.83-1.77-15.79-4.38-23.81-4.31-9.72.08-16.23-.17-25.94,0-2.6.05-8.61,3.11-11.04,4.06-2.22.87-4.1,2.43-5.92,3.99-4.2,3.59-8.3,7.3-12.3,11.12-4.1,3.92-8.15,8.02-10.94,12.98-2.91,5.17-4.34,11.03-5.73,16.8-3.55,14.74-7.12,29.85-5.37,44.91,12.16-10.49,28.53-15.2,40.12-26.32-1.08,2.22-2.16,4.43-3.24,6.65,3.22-1.91,7.79-6.77,10.73-9.1,10.38-8.23,20.01-23.19,20.75-37.41"/>
  </g>
  <g>
    <circle class="cls-8" cx="474.73" cy="320.56" r="75.51"/>
    <path d="M420.95,368.22c.48,0,.48-.75,0-.75s-.48.75,0,.75h0Z"/>
    <path d="M421.6,370.81c.48,0,.48-.75,0-.75s-.48.75,0,.75h0Z"/>
    <path d="M424.52,370.49c.48,0,.48-.75,0-.75s-.48.75,0,.75h0Z"/>
    <path d="M428.74,376c.48,0,.48-.75,0-.75s-.48.75,0,.75h0Z"/>
    <path d="M432.95,376c.48,0,.48-.75,0-.75s-.48.75,0,.75h0Z"/>
    <path d="M432.95,380.54c.48,0,.48-.75,0-.75s-.48.75,0,.75h0Z"/>
    <path d="M437.81,380.54c.48,0,.48-.75,0-.75s-.48.75,0,.75h0Z"/>
    <path d="M439.43,385.08c.48,0,.48-.75,0-.75s-.48.75,0,.75h0Z"/>
    <path d="M437.81,376.32c.48,0,.48-.75,0-.75s-.48.75,0,.75h0Z"/>
    <path d="M434.9,371.46c.48,0,.48-.75,0-.75s-.48.75,0,.75h0Z"/>
    <path d="M431.65,371.46c.48,0,.48-.75,0-.75s-.48.75,0,.75h0Z"/>
    <path d="M430.03,371.78c.48,0,.48-.75,0-.75s-.48.75,0,.75h0Z"/>
    <path d="M431.33,373.4c.48,0,.48-.75,0-.75s-.48.75,0,.75h0Z"/>
    <path d="M428.74,368.87c.48,0,.48-.75,0-.75s-.48.75,0,.75h0Z"/>
    <path d="M425.82,374.38c.48,0,.48-.75,0-.75s-.48.75,0,.75h0Z"/>
    <path d="M417.06,366.27c.48,0,.48-.75,0-.75s-.48.75,0,.75h0Z"/>
    <path d="M414.79,364.33c.48,0,.48-.75,0-.75s-.48.75,0,.75h0Z"/>
    <path d="M413.17,362.06c.48,0,.48-.75,0-.75s-.48.75,0,.75h0Z"/>
    <path d="M419.01,362.38c.48,0,.48-.75,0-.75s-.48.75,0,.75h0Z"/>
    <path d="M419.01,365.95c.48,0,.48-.75,0-.75s-.48.75,0,.75h0Z"/>
    <path d="M416.74,357.84c.48,0,.48-.75,0-.75s-.48.75,0,.75h0Z"/>
    <path d="M410.9,357.52c.48,0,.48-.75,0-.75s-.48.75,0,.75h0Z"/>
    <path d="M414.47,353.63c.48,0,.48-.75,0-.75s-.48.75,0,.75h0Z"/>
    <path d="M412.85,357.84c.48,0,.48-.75,0-.75s-.48.75,0,.75h0Z"/>
    <path d="M407.66,351.36c.48,0,.48-.75,0-.75s-.48.75,0,.75h0Z"/>
    <path d="M406.37,347.47c.48,0,.48-.75,0-.75s-.48.75,0,.75h0Z"/>
    <path d="M411.23,352.98c.48,0,.48-.75,0-.75s-.48.75,0,.75h0Z"/>
    <path d="M417.06,351.36c.48,0,.48-.75,0-.75s-.48.75,0,.75h0Z"/>
    <path d="M421.28,356.55c.48,0,.48-.75,0-.75s-.48.75,0,.75h0Z"/>
    <path d="M419.66,353.63c.48,0,.48-.75,0-.75s-.48.75,0,.75h0Z"/>
    <path d="M427.44,352.33c.48,0,.48-.75,0-.75s-.48.75,0,.75h0Z"/>
    <path d="M424.52,351.03c.48,0,.48-.75,0-.75s-.48.75,0,.75h0Z"/>
    <path d="M424.52,357.52c.48,0,.48-.75,0-.75s-.48.75,0,.75h0Z"/>
    <path d="M424.85,365.95c.48,0,.48-.75,0-.75s-.48.75,0,.75h0Z"/>
    <path d="M431.98,365.3c.48,0,.48-.75,0-.75s-.48.75,0,.75h0Z"/>
    <path d="M429.38,361.73c.48,0,.48-.75,0-.75s-.48.75,0,.75h0Z"/>
    <path d="M423.87,362.06c.48,0,.48-.75,0-.75s-.48.75,0,.75h0Z"/>
    <path d="M426.79,362.38c.48,0,.48-.75,0-.75s-.48.75,0,.75h0Z"/>
    <path d="M428.41,356.22c.48,0,.48-.75,0-.75s-.48.75,0,.75h0Z"/>
    <path d="M430.03,361.08c.48,0,.48-.75,0-.75s-.48.75,0,.75h0Z"/>
    <path d="M431.65,363.35c.48,0,.48-.75,0-.75s-.48.75,0,.75h0Z"/>
    <path d="M437.17,365.62c.48,0,.48-.75,0-.75s-.48.75,0,.75h0Z"/>
    <path d="M440.73,368.22c.48,0,.48-.75,0-.75s-.48.75,0,.75h0Z"/>
    <path d="M442.03,372.43c.48,0,.48-.75,0-.75s-.48.75,0,.75h0Z"/>
    <path d="M441.7,378.92c.48,0,.48-.75,0-.75s-.48.75,0,.75h0Z"/>
    <path d="M434.9,384.1c.48,0,.48-.75,0-.75s-.48.75,0,.75h0Z"/>
    <path d="M445.92,385.72c.48,0,.48-.75,0-.75s-.48.75,0,.75h0Z"/>
    <path d="M447.22,377.29c.48,0,.48-.75,0-.75s-.48.75,0,.75h0Z"/>
    <path d="M445.27,379.24c.48,0,.48-.75,0-.75s-.48.75,0,.75h0Z"/>
    <path d="M444.3,384.1c.48,0,.48-.75,0-.75s-.48.75,0,.75h0Z"/>
    <path d="M443,388.32c.48,0,.48-.75,0-.75s-.48.75,0,.75h0Z"/>
    <path d="M447.54,389.29c.48,0,.48-.75,0-.75s-.48.75,0,.75h0Z"/>
    <path d="M451.11,384.1c.48,0,.48-.75,0-.75s-.48.75,0,.75h0Z"/>
    <path d="M451.11,388.64c.48,0,.48-.75,0-.75s-.48.75,0,.75h0Z"/>
    <path d="M447.54,381.51c.48,0,.48-.75,0-.75s-.48.75,0,.75h0Z"/>
    <path d="M447.86,384.75c.48,0,.48-.75,0-.75s-.48.75,0,.75h0Z"/>
    <path d="M452.4,391.24c.48,0,.48-.75,0-.75s-.48.75,0,.75h0Z"/>
    <path d="M455,392.21c.48,0,.48-.75,0-.75s-.48.75,0,.75h0Z"/>
    <path d="M454.67,387.35c.48,0,.48-.75,0-.75s-.48.75,0,.75h0Z"/>
    <path d="M458.56,392.86c.48,0,.48-.75,0-.75s-.48.75,0,.75h0Z"/>
    <path d="M462.45,393.18c.48,0,.48-.75,0-.75s-.48.75,0,.75h0Z"/>
    <path d="M461.16,390.59c.48,0,.48-.75,0-.75s-.48.75,0,.75h0Z"/>
    <path d="M457.59,390.26c.48,0,.48-.75,0-.75s-.48.75,0,.75h0Z"/>
    <path d="M431.01,357.19c.48,0,.48-.75,0-.75s-.48.75,0,.75h0Z"/>
    <path d="M433.92,357.52c.48,0,.48-.75,0-.75s-.48.75,0,.75h0Z"/>
    <path d="M434.9,360.76c.48,0,.48-.75,0-.75s-.48.75,0,.75h0Z"/>
    <path d="M431.65,352.65c.48,0,.48-.75,0-.75s-.48.75,0,.75h0Z"/>
    <path d="M466.02,394.8c.48,0,.48-.75,0-.75s-.48.75,0,.75h0Z"/>
    <path d="M465.7,393.18c.48,0,.48-.75,0-.75s-.48.75,0,.75h0Z"/>
    <path d="M468.29,393.83c.48,0,.48-.75,0-.75s-.48.75,0,.75h0Z"/>
    <path d="M470.56,394.8c.48,0,.48-.75,0-.75s-.48.75,0,.75h0Z"/>
    <path d="M474.77,393.83c.48,0,.48-.75,0-.75s-.48.75,0,.75h0Z"/>
    <path d="M471.86,392.53c.48,0,.48-.75,0-.75s-.48.75,0,.75h0Z"/>
    <path d="M472.5,395.13c.48,0,.48-.75,0-.75s-.48.75,0,.75h0Z"/>
    <path d="M478.02,395.13c.48,0,.48-.75,0-.75s-.48.75,0,.75h0Z"/>
    <path d="M480.29,393.83c.48,0,.48-.75,0-.75s-.48.75,0,.75h0Z"/>
    <path d="M478.66,392.21c.48,0,.48-.75,0-.75s-.48.75,0,.75h0Z"/>
    <path d="M482.23,389.61c.48,0,.48-.75,0-.75s-.48.75,0,.75h0Z"/>
    <path d="M482.88,390.26c.48,0,.48-.75,0-.75s-.48.75,0,.75h0Z"/>
    <path d="M487.42,390.91c.48,0,.48-.75,0-.75s-.48.75,0,.75h0Z"/>
    <path d="M487.09,392.86c.48,0,.48-.75,0-.75s-.48.75,0,.75h0Z"/>
    <path d="M493.58,392.86c.48,0,.48-.75,0-.75s-.48.75,0,.75h0Z"/>
    <path d="M492.61,386.37c.48,0,.48-.75,0-.75s-.48.75,0,.75h0Z"/>
    <path d="M500.71,387.35c.48,0,.48-.75,0-.75s-.48.75,0,.75h0Z"/>
    <path d="M497.47,390.26c.48,0,.48-.75,0-.75s-.48.75,0,.75h0Z"/>
    <path d="M496.17,388.97c.48,0,.48-.75,0-.75s-.48.75,0,.75h0Z"/>
    <path d="M500.06,384.75c.48,0,.48-.75,0-.75s-.48.75,0,.75h0Z"/>
    <path d="M507.2,385.4c.48,0,.48-.75,0-.75s-.48.75,0,.75h0Z"/>
    <path d="M507.52,379.89c.48,0,.48-.75,0-.75s-.48.75,0,.75h0Z"/>
    <path d="M513.36,379.89c.48,0,.48-.75,0-.75s-.48.75,0,.75h0Z"/>
    <path d="M503.95,383.45c.48,0,.48-.75,0-.75s-.48.75,0,.75h0Z"/>
    <path d="M503.95,387.02c.48,0,.48-.75,0-.75s-.48.75,0,.75h0Z"/>
    <path d="M510.76,385.08c.48,0,.48-.75,0-.75s-.48.75,0,.75h0Z"/>
    <path d="M516.27,382.16c.48,0,.48-.75,0-.75s-.48.75,0,.75h0Z"/>
    <path d="M518.87,377.94c.48,0,.48-.75,0-.75s-.48.75,0,.75h0Z"/>
    <path d="M519.52,380.86c.48,0,.48-.75,0-.75s-.48.75,0,.75h0Z"/>
    <path d="M502.33,389.94c.48,0,.48-.75,0-.75s-.48.75,0,.75h0Z"/>
    <path d="M521.46,378.27c.48,0,.48-.75,0-.75s-.48.75,0,.75h0Z"/>
    <path d="M524.05,376c.48,0,.48-.75,0-.75s-.48.75,0,.75h0Z"/>
    <path d="M521.14,376c.48,0,.48-.75,0-.75s-.48.75,0,.75h0Z"/>
    <path d="M525.68,372.11c.48,0,.48-.75,0-.75s-.48.75,0,.75h0Z"/>
    <path d="M525.35,374.7c.48,0,.48-.75,0-.75s-.48.75,0,.75h0Z"/>
    <path d="M527.94,372.43c.48,0,.48-.75,0-.75s-.48.75,0,.75h0Z"/>
    <path d="M527.62,366.92c.48,0,.48-.75,0-.75s-.48.75,0,.75h0Z"/>
    <path d="M532.48,364.65c.48,0,.48-.75,0-.75s-.48.75,0,.75h0Z"/>
    <path d="M530.86,369.51c.48,0,.48-.75,0-.75s-.48.75,0,.75h0Z"/>
    <path d="M530.21,360.76c.48,0,.48-.75,0-.75s-.48.75,0,.75h0Z"/>
    <path d="M534.75,360.76c.48,0,.48-.75,0-.75s-.48.75,0,.75h0Z"/>
    <path d="M534.75,356.22c.48,0,.48-.75,0-.75s-.48.75,0,.75h0Z"/>
    <path d="M538.97,354.6c.48,0,.48-.75,0-.75s-.48.75,0,.75h0Z"/>
    <path d="M540.59,348.76c.48,0,.48-.75,0-.75s-.48.75,0,.75h0Z"/>
    <path d="M542.21,350.39c.48,0,.48-.75,0-.75s-.48.75,0,.75h0Z"/>
    <path d="M540.91,352.98c.48,0,.48-.75,0-.75s-.48.75,0,.75h0Z"/>
    <path d="M537.02,359.14c.48,0,.48-.75,0-.75s-.48.75,0,.75h0Z"/>
    <path d="M536.05,363.03c.48,0,.48-.75,0-.75s-.48.75,0,.75h0Z"/>
    <path d="M535.08,353.95c.48,0,.48-.75,0-.75s-.48.75,0,.75h0Z"/>
    <path d="M535.08,350.06c.48,0,.48-.75,0-.75s-.48.75,0,.75h0Z"/>
    <path d="M538,351.68c.48,0,.48-.75,0-.75s-.48.75,0,.75h0Z"/>
    <path d="M491.63,389.61c.48,0,.48-.75,0-.75s-.48.75,0,.75h0Z"/>
    <path d="M489.69,387.99c.48,0,.48-.75,0-.75s-.48.75,0,.75h0Z"/>
    <path d="M490.66,393.51c.48,0,.48-.75,0-.75s-.48.75,0,.75h0Z"/>
    <path d="M482.88,394.48c.48,0,.48-.75,0-.75s-.48.75,0,.75h0Z"/>
    <path d="M476.4,387.35c.48,0,.48-.75,0-.75s-.48.75,0,.75h0Z"/>
    <path d="M471.21,387.35c.48,0,.48-.75,0-.75s-.48.75,0,.75h0Z"/>
    <path d="M466.99,388.32c.48,0,.48-.75,0-.75s-.48.75,0,.75h0Z"/>
    <path d="M462.78,384.1c.48,0,.48-.75,0-.75s-.48.75,0,.75h0Z"/>
    <path d="M459.86,384.43c.48,0,.48-.75,0-.75s-.48.75,0,.75h0Z"/>
    <path d="M457.59,382.81c.48,0,.48-.75,0-.75s-.48.75,0,.75h0Z"/>
    <path d="M457.27,382.81c.48,0,.48-.75,0-.75s-.48.75,0,.75h0Z"/>
    <path d="M454.67,381.83c.48,0,.48-.75,0-.75s-.48.75,0,.75h0Z"/>
    <path d="M452.4,379.89c.48,0,.48-.75,0-.75s-.48.75,0,.75h0Z"/>
    <path d="M450.13,376.65c.48,0,.48-.75,0-.75s-.48.75,0,.75h0Z"/>
    <path d="M448.51,373.4c.48,0,.48-.75,0-.75s-.48.75,0,.75h0Z"/>
    <path d="M446.57,373.4c.48,0,.48-.75,0-.75s-.48.75,0,.75h0Z"/>
    <path d="M444.62,371.13c.48,0,.48-.75,0-.75s-.48.75,0,.75h0Z"/>
    <path d="M462.45,387.99c.48,0,.48-.75,0-.75s-.48.75,0,.75h0Z"/>
    <path d="M465.7,389.94c.48,0,.48-.75,0-.75s-.48.75,0,.75h0Z"/>
    <path d="M470.88,390.91c.48,0,.48-.75,0-.75s-.48.75,0,.75h0Z"/>
    <path d="M474.45,390.26c.48,0,.48-.75,0-.75s-.48.75,0,.75h0Z"/>
    <path d="M478.02,390.26c.48,0,.48-.75,0-.75s-.48.75,0,.75h0Z"/>
    <path d="M479.31,387.99c.48,0,.48-.75,0-.75s-.48.75,0,.75h0Z"/>
    <path d="M484.5,387.67c.48,0,.48-.75,0-.75s-.48.75,0,.75h0Z"/>
    <path d="M484.5,385.08c.48,0,.48-.75,0-.75s-.48.75,0,.75h0Z"/>
    <path d="M488.07,385.08c.48,0,.48-.75,0-.75s-.48.75,0,.75h0Z"/>
    <path d="M490.66,382.81c.48,0,.48-.75,0-.75s-.48.75,0,.75h0Z"/>
    <path d="M492.28,382.81c.48,0,.48-.75,0-.75s-.48.75,0,.75h0Z"/>
    <path d="M494.55,383.78c.48,0,.48-.75,0-.75s-.48.75,0,.75h0Z"/>
    <path d="M496.82,382.48c.48,0,.48-.75,0-.75s-.48.75,0,.75h0Z"/>
    <path d="M500.71,380.54c.48,0,.48-.75,0-.75s-.48.75,0,.75h0Z"/>
    <path d="M508.49,382.81c.48,0,.48-.75,0-.75s-.48.75,0,.75h0Z"/>
    <path d="M508.17,377.94c.48,0,.48-.75,0-.75s-.48.75,0,.75h0Z"/>
    <path d="M512.38,376.65c.48,0,.48-.75,0-.75s-.48.75,0,.75h0Z"/>
    <path d="M512.38,373.4c.48,0,.48-.75,0-.75s-.48.75,0,.75h0Z"/>
    <path d="M507.52,369.84c.48,0,.48-.75,0-.75s-.48.75,0,.75h0Z"/>
    <path d="M511.09,369.84c.48,0,.48-.75,0-.75s-.48.75,0,.75h0Z"/>
    <path d="M514.98,366.92c.48,0,.48-.75,0-.75s-.48.75,0,.75h0Z"/>
    <path d="M514.65,371.78c.48,0,.48-.75,0-.75s-.48.75,0,.75h0Z"/>
    <path d="M514.65,376.32c.48,0,.48-.75,0-.75s-.48.75,0,.75h0Z"/>
    <path d="M517.89,373.08c.48,0,.48-.75,0-.75s-.48.75,0,.75h0Z"/>
    <path d="M518.22,366.27c.48,0,.48-.75,0-.75s-.48.75,0,.75h0Z"/>
    <path d="M517.57,368.54c.48,0,.48-.75,0-.75s-.48.75,0,.75h0Z"/>
    <path d="M521.46,370.81c.48,0,.48-.75,0-.75s-.48.75,0,.75h0Z"/>
    <path d="M523.08,367.24c.48,0,.48-.75,0-.75s-.48.75,0,.75h0Z"/>
    <path d="M523.73,370.81c.48,0,.48-.75,0-.75s-.48.75,0,.75h0Z"/>
    <path d="M525.68,364.65c.48,0,.48-.75,0-.75s-.48.75,0,.75h0Z"/>
    <path d="M518.87,364.65c.48,0,.48-.75,0-.75s-.48.75,0,.75h0Z"/>
    <path d="M521.14,364.33c.48,0,.48-.75,0-.75s-.48.75,0,.75h0Z"/>
    <path d="M521.14,361.41c.48,0,.48-.75,0-.75s-.48.75,0,.75h0Z"/>
    <path d="M522.76,363.03c.48,0,.48-.75,0-.75s-.48.75,0,.75h0Z"/>
    <path d="M523.08,359.14c.48,0,.48-.75,0-.75s-.48.75,0,.75h0Z"/>
    <path d="M525.68,360.44c.48,0,.48-.75,0-.75s-.48.75,0,.75h0Z"/>
    <path d="M525.35,356.87c.48,0,.48-.75,0-.75s-.48.75,0,.75h0Z"/>
    <path d="M527.62,356.87c.48,0,.48-.75,0-.75s-.48.75,0,.75h0Z"/>
    <path d="M527.62,360.11c.48,0,.48-.75,0-.75s-.48.75,0,.75h0Z"/>
    <path d="M527.62,363.35c.48,0,.48-.75,0-.75s-.48.75,0,.75h0Z"/>
    <path d="M529.24,364.33c.48,0,.48-.75,0-.75s-.48.75,0,.75h0Z"/>
    <path d="M530.54,358.17c.48,0,.48-.75,0-.75s-.48.75,0,.75h0Z"/>
    <path d="M530.54,354.6c.48,0,.48-.75,0-.75s-.48.75,0,.75h0Z"/>
    <path d="M527.94,352.98c.48,0,.48-.75,0-.75s-.48.75,0,.75h0Z"/>
    <path d="M536.37,348.12c.48,0,.48-.75,0-.75s-.48.75,0,.75h0Z"/>
    <path d="M542.86,346.82c.48,0,.48-.75,0-.75s-.48.75,0,.75h0Z"/>
    <path d="M544.48,343.58c.48,0,.48-.75,0-.75s-.48.75,0,.75h0Z"/>
    <path d="M539.94,345.2c.48,0,.48-.75,0-.75s-.48.75,0,.75h0Z"/>
    <path d="M465.05,386.37c.48,0,.48-.75,0-.75s-.48.75,0,.75h0Z"/>
    <path d="M468.94,384.75c.48,0,.48-.75,0-.75s-.48.75,0,.75h0Z"/>
    <path d="M467.64,387.99c.48,0,.48-.75,0-.75s-.48.75,0,.75h0Z"/>
    <path d="M473.15,382.81c.48,0,.48-.75,0-.75s-.48.75,0,.75h0Z"/>
    <path d="M476.07,382.81c.48,0,.48-.75,0-.75s-.48.75,0,.75h0Z"/>
    <path d="M473.8,385.72c.48,0,.48-.75,0-.75s-.48.75,0,.75h0Z"/>
    <path d="M478.34,384.1c.48,0,.48-.75,0-.75s-.48.75,0,.75h0Z"/>
    <path d="M481.91,384.1c.48,0,.48-.75,0-.75s-.48.75,0,.75h0Z"/>
    <path d="M482.23,381.83c.48,0,.48-.75,0-.75s-.48.75,0,.75h0Z"/>
    <path d="M485.47,382.16c.48,0,.48-.75,0-.75s-.48.75,0,.75h0Z"/>
    <path d="M488.72,381.19c.48,0,.48-.75,0-.75s-.48.75,0,.75h0Z"/>
    <path d="M492.28,379.89c.48,0,.48-.75,0-.75s-.48.75,0,.75h0Z"/>
    <path d="M494.23,379.89c.48,0,.48-.75,0-.75s-.48.75,0,.75h0Z"/>
    <path d="M497.47,380.21c.48,0,.48-.75,0-.75s-.48.75,0,.75h0Z"/>
    <path d="M499.09,376.65c.48,0,.48-.75,0-.75s-.48.75,0,.75h0Z"/>
    <path d="M501.04,378.92c.48,0,.48-.75,0-.75s-.48.75,0,.75h0Z"/>
    <path d="M504.28,378.92c.48,0,.48-.75,0-.75s-.48.75,0,.75h0Z"/>
    <path d="M503.63,374.7c.48,0,.48-.75,0-.75s-.48.75,0,.75h0Z"/>
    <path d="M507.2,374.38c.48,0,.48-.75,0-.75s-.48.75,0,.75h0Z"/>
    <path d="M506.22,376.97c.48,0,.48-.75,0-.75s-.48.75,0,.75h0Z"/>
    <path d="M508.82,371.46c.48,0,.48-.75,0-.75s-.48.75,0,.75h0Z"/>
    <path d="M512.06,367.89c.48,0,.48-.75,0-.75s-.48.75,0,.75h0Z"/>
    <path d="M511.09,363.68c.48,0,.48-.75,0-.75s-.48.75,0,.75h0Z"/>
    <path d="M513.68,363.03c.48,0,.48-.75,0-.75s-.48.75,0,.75h0Z"/>
    <path d="M512.71,365.3c.48,0,.48-.75,0-.75s-.48.75,0,.75h0Z"/>
    <path d="M530.86,351.36c.48,0,.48-.75,0-.75s-.48.75,0,.75h0Z"/>
    <path d="M465.7,382.16c.48,0,.48-.75,0-.75s-.48.75,0,.75h0Z"/>
    <path d="M462.78,381.19c.48,0,.48-.75,0-.75s-.48.75,0,.75h0Z"/>
    <path d="M460.51,381.19c.48,0,.48-.75,0-.75s-.48.75,0,.75h0Z"/>
    <path d="M458.89,378.92c.48,0,.48-.75,0-.75s-.48.75,0,.75h0Z"/>
    <path d="M454.67,378.92c.48,0,.48-.75,0-.75s-.48.75,0,.75h0Z"/>
    <path d="M454.67,376c.48,0,.48-.75,0-.75s-.48.75,0,.75h0Z"/>
    <path d="M452.08,374.38c.48,0,.48-.75,0-.75s-.48.75,0,.75h0Z"/>
    <path d="M448.84,370.49c.48,0,.48-.75,0-.75s-.48.75,0,.75h0Z"/>
    <path d="M438.46,370.81c.48,0,.48-.75,0-.75s-.48.75,0,.75h0Z"/>
    <path d="M438.46,373.08c.48,0,.48-.75,0-.75s-.48.75,0,.75h0Z"/>
    <path d="M428.41,378.92c.48,0,.48-.75,0-.75s-.48.75,0,.75h0Z"/>
    <path d="M412.53,350.39c.48,0,.48-.75,0-.75s-.48.75,0,.75h0Z"/>
    <path d="M469.26,381.83c.48,0,.48-.75,0-.75s-.48.75,0,.75h0Z"/>
    <path d="M471.21,380.21c.48,0,.48-.75,0-.75s-.48.75,0,.75h0Z"/>
    <path d="M477.69,379.89c.48,0,.48-.75,0-.75s-.48.75,0,.75h0Z"/>
    <path d="M483.53,378.59c.48,0,.48-.75,0-.75s-.48.75,0,.75h0Z"/>
    <path d="M489.69,377.62c.48,0,.48-.75,0-.75s-.48.75,0,.75h0Z"/>
    <path d="M491.96,377.29c.48,0,.48-.75,0-.75s-.48.75,0,.75h0Z"/>
    <path d="M493.9,374.38c.48,0,.48-.75,0-.75s-.48.75,0,.75h0Z"/>
    <path d="M495.85,377.29c.48,0,.48-.75,0-.75s-.48.75,0,.75h0Z"/>
    <path d="M498.77,371.13c.48,0,.48-.75,0-.75s-.48.75,0,.75h0Z"/>
    <path d="M496.82,373.73c.48,0,.48-.75,0-.75s-.48.75,0,.75h0Z"/>
    <path d="M500.71,373.08c.48,0,.48-.75,0-.75s-.48.75,0,.75h0Z"/>
    <path d="M504.28,373.08c.48,0,.48-.75,0-.75s-.48.75,0,.75h0Z"/>
    <path d="M503.95,368.54c.48,0,.48-.75,0-.75s-.48.75,0,.75h0Z"/>
    <path d="M508.17,366.6c.48,0,.48-.75,0-.75s-.48.75,0,.75h0Z"/>
    <path d="M516.6,362.71c.48,0,.48-.75,0-.75s-.48.75,0,.75h0Z"/>
    <path d="M517.25,359.14c.48,0,.48-.75,0-.75s-.48.75,0,.75h0Z"/>
    <path d="M486.77,377.29c.48,0,.48-.75,0-.75s-.48.75,0,.75h0Z"/>
    <path d="M473.15,379.56c.48,0,.48-.75,0-.75s-.48.75,0,.75h0Z"/>
    <path d="M464.4,378.92c.48,0,.48-.75,0-.75s-.48.75,0,.75h0Z"/>
    <path d="M458.89,375.67c.48,0,.48-.75,0-.75s-.48.75,0,.75h0Z"/>
    <path d="M443,364.33c.48,0,.48-.75,0-.75s-.48.75,0,.75h0Z"/>
    <path d="M448.51,365.62c.48,0,.48-.75,0-.75s-.48.75,0,.75h0Z"/>
    <path d="M453.05,360.44c.48,0,.48-.75,0-.75s-.48.75,0,.75h0Z"/>
    <path d="M460.51,358.81c.48,0,.48-.75,0-.75s-.48.75,0,.75h0Z"/>
    <path d="M465.7,358.81c.48,0,.48-.75,0-.75s-.48.75,0,.75h0Z"/>
    <path d="M472.5,358.81c.48,0,.48-.75,0-.75s-.48.75,0,.75h0Z"/>
    <path d="M480.93,359.14c.48,0,.48-.75,0-.75s-.48.75,0,.75h0Z"/>
    <path d="M484.82,359.14c.48,0,.48-.75,0-.75s-.48.75,0,.75h0Z"/>
    <path d="M490.34,359.14c.48,0,.48-.75,0-.75s-.48.75,0,.75h0Z"/>
    <path d="M490.34,361.73c.48,0,.48-.75,0-.75s-.48.75,0,.75h0Z"/>
    <path d="M495.2,362.06c.48,0,.48-.75,0-.75s-.48.75,0,.75h0Z"/>
    <path d="M492.28,366.27c.48,0,.48-.75,0-.75s-.48.75,0,.75h0Z"/>
    <path d="M496.17,367.24c.48,0,.48-.75,0-.75s-.48.75,0,.75h0Z"/>
    <path d="M494.55,370.16c.48,0,.48-.75,0-.75s-.48.75,0,.75h0Z"/>
    <path d="M498.77,367.24c.48,0,.48-.75,0-.75s-.48.75,0,.75h0Z"/>
    <path d="M502.33,364.33c.48,0,.48-.75,0-.75s-.48.75,0,.75h0Z"/>
    <path d="M499.74,360.44c.48,0,.48-.75,0-.75s-.48.75,0,.75h0Z"/>
    <path d="M497.47,360.44c.48,0,.48-.75,0-.75s-.48.75,0,.75h0Z"/>
    <path d="M493.58,359.14c.48,0,.48-.75,0-.75s-.48.75,0,.75h0Z"/>
    <path d="M505.9,362.71c.48,0,.48-.75,0-.75s-.48.75,0,.75h0Z"/>
    <path d="M497.14,363.35c.48,0,.48-.75,0-.75s-.48.75,0,.75h0Z"/>
    <path d="M507.84,361.08c.48,0,.48-.75,0-.75s-.48.75,0,.75h0Z"/>
    <path d="M503.95,361.41c.48,0,.48-.75,0-.75s-.48.75,0,.75h0Z"/>
    <path d="M507.52,359.79c.48,0,.48-.75,0-.75s-.48.75,0,.75h0Z"/>
    <path d="M513.68,359.79c.48,0,.48-.75,0-.75s-.48.75,0,.75h0Z"/>
    <path d="M516.6,355.9c.48,0,.48-.75,0-.75s-.48.75,0,.75h0Z"/>
    <path d="M522.43,354.28c.48,0,.48-.75,0-.75s-.48.75,0,.75h0Z"/>
    <path d="M525.35,351.03c.48,0,.48-.75,0-.75s-.48.75,0,.75h0Z"/>
    <path d="M530.54,348.44c.48,0,.48-.75,0-.75s-.48.75,0,.75h0Z"/>
    <path d="M537.02,343.58c.48,0,.48-.75,0-.75s-.48.75,0,.75h0Z"/>
    <path d="M544.8,340.98c.48,0,.48-.75,0-.75s-.48.75,0,.75h0Z"/>
    <path d="M545.45,337.42c.48,0,.48-.75,0-.75s-.48.75,0,.75h0Z"/>
    <path d="M542.53,340.98c.48,0,.48-.75,0-.75s-.48.75,0,.75h0Z"/>
    <path d="M445.27,360.76c.48,0,.48-.75,0-.75s-.48.75,0,.75h0Z"/>
    <path d="M439.43,360.76c.48,0,.48-.75,0-.75s-.48.75,0,.75h0Z"/>
    <path d="M438.79,356.87c.48,0,.48-.75,0-.75s-.48.75,0,.75h0Z"/>
    <path d="M436.19,355.9c.48,0,.48-.75,0-.75s-.48.75,0,.75h0Z"/>
    <path d="M435.54,359.79c.48,0,.48-.75,0-.75s-.48.75,0,.75h0Z"/>
    <path d="M447.86,358.17c.48,0,.48-.75,0-.75s-.48.75,0,.75h0Z"/>
    <path d="M442.03,357.52c.48,0,.48-.75,0-.75s-.48.75,0,.75h0Z"/>
    <path d="M449.81,361.41c.48,0,.48-.75,0-.75s-.48.75,0,.75h0Z"/>
    <path d="M452.08,357.19c.48,0,.48-.75,0-.75s-.48.75,0,.75h0Z"/>
    <path d="M458.24,357.52c.48,0,.48-.75,0-.75s-.48.75,0,.75h0Z"/>
    <path d="M461.81,355.9c.48,0,.48-.75,0-.75s-.48.75,0,.75h0Z"/>
    <path d="M466.99,355.9c.48,0,.48-.75,0-.75s-.48.75,0,.75h0Z"/>
    <path d="M467.97,355.9c.48,0,.48-.75,0-.75s-.48.75,0,.75h0Z"/>
    <path d="M474.45,355.25c.48,0,.48-.75,0-.75s-.48.75,0,.75h0Z"/>
    <path d="M481.26,355.25c.48,0,.48-.75,0-.75s-.48.75,0,.75h0Z"/>
    <path d="M477.04,358.81c.48,0,.48-.75,0-.75s-.48.75,0,.75h0Z"/>
    <path d="M485.8,355.25c.48,0,.48-.75,0-.75s-.48.75,0,.75h0Z"/>
    <path d="M488.07,355.9c.48,0,.48-.75,0-.75s-.48.75,0,.75h0Z"/>
    <path d="M487.42,357.52c.48,0,.48-.75,0-.75s-.48.75,0,.75h0Z"/>
    <path d="M481.58,357.52c.48,0,.48-.75,0-.75s-.48.75,0,.75h0Z"/>
    <path d="M479.31,356.55c.48,0,.48-.75,0-.75s-.48.75,0,.75h0Z"/>
    <path d="M475.75,356.55c.48,0,.48-.75,0-.75s-.48.75,0,.75h0Z"/>
    <path d="M475.75,356.55c.48,0,.48-.75,0-.75s-.48.75,0,.75h0Z"/>
    <path d="M467.97,356.87c.48,0,.48-.75,0-.75s-.48.75,0,.75h0Z"/>
    <path d="M493.25,355.57c.48,0,.48-.75,0-.75s-.48.75,0,.75h0Z"/>
    <path d="M495.2,355.57c.48,0,.48-.75,0-.75s-.48.75,0,.75h0Z"/>
    <path d="M451.43,371.13c.48,0,.48-.75,0-.75s-.48.75,0,.75h0Z"/>
    <path d="M467.32,378.92c.48,0,.48-.75,0-.75s-.48.75,0,.75h0Z"/>
    <path d="M478.66,378.27c.48,0,.48-.75,0-.75s-.48.75,0,.75h0Z"/>
    <path d="M490.34,373.08c.48,0,.48-.75,0-.75s-.48.75,0,.75h0Z"/>
    <path d="M492.93,370.49c.48,0,.48-.75,0-.75s-.48.75,0,.75h0Z"/>
    <path d="M444.3,366.27c.48,0,.48-.75,0-.75s-.48.75,0,.75h0Z"/>
    <path d="M423.87,353.63c.48,0,.48-.75,0-.75s-.48.75,0,.75h0Z"/>
    <path d="M415.44,361.41c.48,0,.48-.75,0-.75s-.48.75,0,.75h0Z"/>
    <path d="M418.04,349.74c.48,0,.48-.75,0-.75s-.48.75,0,.75h0Z"/>
    <path d="M409.93,347.14c.48,0,.48-.75,0-.75s-.48.75,0,.75h0Z"/>
    <path d="M403.77,344.23c.48,0,.48-.75,0-.75s-.48.75,0,.75h0Z"/>
    <path d="M403.12,340.01c.48,0,.48-.75,0-.75s-.48.75,0,.75h0Z"/>
    <path d="M407.99,344.87c.48,0,.48-.75,0-.75s-.48.75,0,.75h0Z"/>
    <path d="M502.01,355.9c.48,0,.48-.75,0-.75s-.48.75,0,.75h0Z"/>
    <path d="M502.66,360.11c.48,0,.48-.75,0-.75s-.48.75,0,.75h0Z"/>
    <path d="M497.47,356.87c.48,0,.48-.75,0-.75s-.48.75,0,.75h0Z"/>
    <path d="M510.44,359.14c.48,0,.48-.75,0-.75s-.48.75,0,.75h0Z"/>
    <path d="M511.73,356.55c.48,0,.48-.75,0-.75s-.48.75,0,.75h0Z"/>
    <path d="M505.25,357.19c.48,0,.48-.75,0-.75s-.48.75,0,.75h0Z"/>
    <path d="M520.49,358.17c.48,0,.48-.75,0-.75s-.48.75,0,.75h0Z"/>
    <path d="M510.76,378.59c.48,0,.48-.75,0-.75s-.48.75,0,.75h0Z"/>
    <path d="M510.44,382.16c.48,0,.48-.75,0-.75s-.48.75,0,.75h0Z"/>
    <path d="M513.03,383.45c.48,0,.48-.75,0-.75s-.48.75,0,.75h0Z"/>
    <path d="M526.65,369.51c.48,0,.48-.75,0-.75s-.48.75,0,.75h0Z"/>
    <path d="M519.19,367.24c.48,0,.48-.75,0-.75s-.48.75,0,.75h0Z"/>
    <path d="M533.78,366.27c.48,0,.48-.75,0-.75s-.48.75,0,.75h0Z"/>
    <path d="M532.16,358.81c.48,0,.48-.75,0-.75s-.48.75,0,.75h0Z"/>
    <path d="M413.82,348.12c.48,0,.48-.75,0-.75s-.48.75,0,.75h0Z"/>
    <path d="M405.39,342.6c.48,0,.48-.75,0-.75s-.48.75,0,.75h0Z"/>
    <path d="M401.5,337.09c.48,0,.48-.75,0-.75s-.48.75,0,.75h0Z"/>
    <path d="M434.9,351.68c.48,0,.48-.75,0-.75s-.48.75,0,.75h0Z"/>
    <path d="M420.63,347.14c.48,0,.48-.75,0-.75s-.48.75,0,.75h0Z"/>
    <path d="M411.88,344.55c.48,0,.48-.75,0-.75s-.48.75,0,.75h0Z"/>
    <path d="M519.19,355.9c.48,0,.48-.75,0-.75s-.48.75,0,.75h0Z"/>
    <path d="M508.49,355.9c.48,0,.48-.75,0-.75s-.48.75,0,.75h0Z"/>
    <path d="M504.93,354.92c.48,0,.48-.75,0-.75s-.48.75,0,.75h0Z"/>
    <path d="M513.03,354.6c.48,0,.48-.75,0-.75s-.48.75,0,.75h0Z"/>
    <path d="M519.52,352.98c.48,0,.48-.75,0-.75s-.48.75,0,.75h0Z"/>
    <path d="M451.11,366.6c.48,0,.48-.75,0-.75s-.48.75,0,.75h0Z"/>
    <path d="M451.43,364.65c.48,0,.48-.75,0-.75s-.48.75,0,.75h0Z"/>
    <path d="M455.65,362.38c.48,0,.48-.75,0-.75s-.48.75,0,.75h0Z"/>
    <path class="cls-19" d="M399.17,311.42l-.62,4.37c-.08.59-.12,1.3.35,1.66.83.63,1.83-.54,2.2-1.51.78-2,1.56-4,2.34-6,4.03-10.33,7.22-19.12,15.14-29.46,6.85-8.94,17.61-18.66,28.69-18.26,1.26.05,5.82,2.73,6.86,3.43,1.25.85,4.47,2.6,5.72,3.43,3.43,2.29,3.3,2.55,5.72,3.43,9.82,3.59,16.88.45,26.41-3.87,2.86-1.3,5.55-2.98,8.51-4,6.6-2.27,14.62-1.16,19.99,3.3,1.44,1.2,4.47,3.18,5.72,4.58,8.72,9.74,14.81,20.21,18.36,32.79,1.43,5.05,1.14,10.11,4.52,14.12.6.71.32,1.56,1.14,1.14.4-.2.96-.74,1.14-1.14,1.4-3.07.86-5.89,0-9.15-1.33-5.08-1.16-10.43-3.07-15.33-4.1-10.53-9.61-20.7-17.66-28.63-4.54-4.47-9.79-8.15-15.19-11.54-5.03-3.16-10.23-6.1-15.76-8.28-10-3.94-20.99-5.33-31.65-4-13.05,1.63-25.24,7.19-37.2,12.68-3.45,1.58-6.91,4.73-9.91,7.04-5.19,4-8.01,9.15-11.57,14.16-6.16,8.67-10.9,19.17-11.2,29.8-.11,4.09-1.5,8.56,1.03,11.74"/>
    <ellipse class="cls-14" cx="444.41" cy="307.41" rx="7.44" ry="15.45" transform="translate(76.31 703.01) rotate(-81.73)"/>
    <ellipse class="cls-14" cx="503.91" cy="307.41" rx="15.45" ry="7.44" transform="translate(-38.96 75.63) rotate(-8.27)"/>
    <path class="cls-19" d="M458.89,296.81c.12.17-.01.34-.32.43-.59.19-1.44-.39-1.91-.66-1.25-.72-2.46-1.47-3.78-2.06-2.66-1.19-5.41-1.91-8.3-2.18-1.6-.15-3.18-.23-4.75-.65-1.42-.38-2.79-.9-4.23-1.17-3.06-.57-6.17-.41-9.15.46l1.69,2.2c1.16-2.22,3.85-2.81,6.16-2.4,3,.54,5.64,2.24,8.43,3.38,1.36.56,2.75.98,4.22,1.16,1.56.19,3.04-.22,4.58-.13,2.6.15,4.55,2.5,7.15,2.87,1.33.19,2.69-1.38,1.46-2.51-1.86-1.7-4.62-2.53-6.98-3.27-2.63-.83-5.33-1.45-8.02-2.07-5.13-1.17-10.6-2.04-15.68-.16-1.27.47-1.57,2.57,0,2.89,5.41,1.13,10.75,2.52,16.01,4.21,2.52.81,4.99,1.75,7.5,2.59s5.12,1.33,7.66.48c1.82-.61,1.04-3.5-.8-2.89-2.42.8-4.83-.03-7.13-.85-2.44-.87-4.88-1.73-7.35-2.51-4.97-1.56-10.01-2.86-15.11-3.92v2.89c4.59-1.69,9.44-.9,14.09.16,2.39.55,4.78,1.11,7.14,1.8,2.09.62,4.89,1.27,6.54,2.77l1.46-2.51c-2.88-.41-4.93-2.88-7.95-2.98-1.8-.06-3.46.4-5.26-.02-1.69-.39-3.26-1.12-4.82-1.86-2.87-1.37-5.97-2.89-9.24-2.63-2.72.22-5.36,1.5-6.66,3.98-.59,1.12.39,2.58,1.69,2.2,3.66-1.07,7.08-.73,10.67.38s7.1.83,10.57,1.82c1.61.46,3.15,1.1,4.61,1.89s2.75,1.84,4.35,2.18c2.59.55,5.94-2.21,4.03-4.85-1.12-1.55-3.72-.06-2.59,1.51h0Z"/>
    <path class="cls-19" d="M484.5,295.47c-1.77,1.89-.61,4.85,1.78,5.5,2.57.7,5.54-.82,7.06-2.85.59-.79-.05-1.97-.9-2.2-1.23-.34-2.52-.54-3.8-.52-.57,0-1.45-.02-2,.19l-.45.08.38,1.39c.13.08.78-.14.93-.16,2.76-.35,5.55-.38,8.32-.19l-.76-2.8c-1.44,1.07-2.88,2.15-4.32,3.22-.61.45-.93,1.13-.61,1.87.26.62,1.08,1.15,1.77.87,3.95-1.61,8.33-2.21,12.48-3.11,4.36-.94,8.72-1.89,13.08-2.83,1.61-.35,1.22-2.38,0-2.89-4.73-1.97-9.93-1.3-14.83-.46-5.6.96-11.17,2.11-16.7,3.43-1.67.4-1.27,2.92.4,2.95,6.51.1,13.01-.85,19.22-2.82l-1.46-2.51c-3.18,3.34-8.57,2.96-12.68,4.31-1.84.6-1.09,3.28.8,2.89,8.44-1.73,16.98-4.01,25.63-4.25l-.4-2.95c-8.39,1.16-16.75,2.53-25.08,4.1-1.44.27-1.42,2.6,0,2.89,4.99,1.03,8.88-1.93,13.26-3.71,3.78-1.54,8.25-.8,11.45-3.68l-2.51-.66c.25,1.04.88,1.86,1.81,2.38l1.51-2.59c-3.6-1.74-7.63-1.26-10.77,1.18-1.52,1.18.61,3.29,2.12,2.12,2-1.55,4.88-1.8,7.14-.71,1.72.83,3.22-1.63,1.51-2.59-.31-.17-.35-.26-.44-.59-.28-1.15-1.7-1.38-2.51-.66-1.31,1.17-3.11,1.43-4.79,1.69-1.82.27-3.59.53-5.31,1.21-3.67,1.46-7.52,4.59-11.7,3.73v2.89c8.33-1.57,16.69-2.94,25.08-4.1,1.68-.23,1.27-2.99-.4-2.95-8.92.25-17.73,2.58-26.43,4.36l.8,2.89c4.73-1.55,10.33-1.21,14-5.08.99-1.04.02-2.98-1.46-2.51-5.98,1.89-12.16,2.81-18.43,2.71l.4,2.95c5.21-1.24,10.46-2.34,15.74-3.26,4.71-.83,9.64-1.61,14.2.29v-2.89c-4.36.94-8.72,1.89-13.08,2.83s-8.54,1.5-12.48,3.11l1.16,2.74c1.44-1.07,2.88-2.15,4.32-3.22,1.19-.89.8-2.69-.76-2.8-2.22-.15-4.44-.16-6.66.02-1.52.12-3.75.04-4.8,1.36s-.46,3.25,1.24,3.55c.92.16,1.89-.21,2.81-.24,1.11-.04,2.17.11,3.24.41l-.9-2.2c-.56.75-1.54,1.18-2.42,1.4-.38.1-1.11.3-1.46,0-.15-.12-.28-.37-.24-.41,1.32-1.41-.8-3.53-2.12-2.12h0Z"/>
    <path class="cls-19" d="M428.29,293.23c.89-.22,1.79.2,2.59.56,1,.44,1.99.87,3.05,1.14,2.19.54,4.46.59,6.71.61l-.4-2.95c-.99.4-1.91.18-2.9-.12-1.07-.32-2.12-.68-3.21-.95-2.28-.58-4.61-.93-6.95-1.1-.81-.06-1.5.73-1.5,1.5,0,.86.69,1.44,1.5,1.5,2.33.16,4.63.56,6.88,1.18s4.67,1.82,6.97.88c.69-.28,1.19-.85,1.07-1.65-.11-.73-.71-1.29-1.47-1.3-2.22-.03-4.47-.04-6.61-.7s-4.12-2.11-6.54-1.5c-1.87.47-1.08,3.37.8,2.89h0Z"/>
    <path d="M504,308.47c1.45,0,1.45-2.25,0-2.25s-1.45,2.25,0,2.25h0Z"/>
    <path d="M444.67,308.24c1.45,0,1.45-2.25,0-2.25s-1.45,2.25,0,2.25h0Z"/>
    <path class="cls-16" d="M458.71,364.04c9.26-.06,19.16-.57,28.42-.63,1.13,2.67-.5,5.62-2.48,7.74s-4.81,3.61-7.63,4.33c-2.65.68-5.67.37-8.41.36s-5.56-.72-7.64-2.5c-1.89-1.62-3-3.95-4.06-6.21-.46-.99-1.26-3.04-.17-3.07.83-.02.95-.32,1.97-.02"/>
    <path class="cls-10" d="M467.25,375.02c1.48-.69,3.09-.85,4.7-.83.85.01,1.7.08,2.55.17.38.04.79.09,1.13.14.17.03.34.05.51.1.19.05.18.05.4.21l1.16-2.74c-.53-.08-1.02-.11-1.54.07-.57.2-1,.63-1.07,1.25-.07.55.17,1.24.72,1.49l.27.13.36-2.74c-1.88.42-3.78.63-5.71.65-.99,0-1.99-.01-2.97-.13-.28-.04-.26-.04-.14,0-.25-.08-.48-.25-.74-.32-.65-.16-1.28.02-1.76.48-1.39,1.34.73,3.46,2.12,2.12l.08-.08-.66.39c-.7-.15-.89-.16-.55,0,.1.05.2.1.3.14.32.14.6.19.95.23.42.05.83.09,1.25.11.95.06,1.91.08,2.87.05,1.94-.06,3.87-.32,5.77-.74,1.21-.27,1.52-2.19.36-2.74l-.27-.13-.36,2.74c.26-.07.24-.09-.06-.07,1.69.26,2.57-1.71,1.16-2.74-.89-.65-2.11-.69-3.17-.81-.98-.12-1.96-.2-2.94-.22-2.15-.03-4.26.32-6.22,1.24-.73.34-.92,1.4-.54,2.05.44.75,1.32.88,2.05.54h0Z"/>
    <g>
      <path class="cls-22" d="M479.1,374.34c.29,1.15.58,2.35.09,3.47-.22.5-.59.97-.88,1.46-.29.48-.52.97-.71,1.48-.17.46-.31.93-.23,1.4s.43.94,1.04,1.19,1.51.21,1.96-.15c.3-.24.37-.57.43-.88.08-.45.17-.9.25-1.35.07-.37.14-.74.04-1.1-.23-.87-1.37-1.6-1.31-2.48"/>
      <path class="cls-22" d="M478.37,374.54c.18.71.37,1.44.32,2.18s-.45,1.26-.83,1.84c-.72,1.1-1.65,2.77-1.12,4.11s2,1.8,3.27,1.49c1.53-.37,1.62-2.02,1.82-3.32.12-.77,0-1.43-.45-2.07-.27-.39-.86-.89-.85-1.4,0-.97-1.5-.97-1.5,0,0,.65.31,1.18.69,1.67s.73.88.64,1.56c-.06.39-.14.78-.22,1.17-.04.23-.04.66-.23.83-.35.31-1.11.16-1.44-.07-.57-.39-.35-1.04-.15-1.58.28-.76.71-1.4,1.15-2.08s.71-1.46.73-2.3-.18-1.63-.38-2.42c-.24-.94-1.68-.54-1.45.4h0Z"/>
    </g>
    <path class="cls-14" d="M479.93,379.48s.07.03.11.06c0,0,.06.04.02,0s0,0,.01.01c.06.05.11.11.16.16.03.04-.04-.06-.01-.02.01.02.02.03.04.05.02.03.04.06.05.09.02.03.04.07.05.1,0,.02.01.03.02.05.02.04-.03-.09,0,0,.05.14.09.28.11.42,0,.01.01.09,0,.03,0-.06,0,0,0,.01,0,.04,0,.08.01.12,0,.04,0,.07,0,.11,0,.07.02-.05,0,0,0,.02-.01.04-.02.06l.74.1c-.02-.18-.05-.35-.1-.53-.05-.15-.11-.3-.18-.45-.13-.3-.28-.58-.52-.8-.14-.13-.39-.15-.53,0s-.15.39,0,.53c.05.05.1.1.14.15.06.07-.04-.06.01.02.02.02.03.05.05.07.04.06.07.12.1.18.01.03.03.05.04.08,0,0,.05.11.03.06s.02.06.03.07c.01.03.02.06.04.09.03.06.05.13.07.19s.04.13.05.2c0,.03.01.06.02.09,0,.02,0,.04.01.06,0-.05,0-.05,0,0,.02.19.13.34.33.37s.34-.09.41-.27c.08-.2.04-.46,0-.67-.03-.17-.07-.34-.13-.5-.15-.37-.4-.76-.78-.93-.18-.08-.41-.06-.51.13-.09.16-.06.43.13.51h0Z"/>
    <ellipse class="cls-7" cx="465.58" cy="341.73" rx="1.72" ry="3.43" transform="translate(-2.22 680.41) rotate(-72.18)"/>
    <ellipse class="cls-7" cx="477.02" cy="341.73" rx="3.43" ry="1.72" transform="translate(-81.69 162.35) rotate(-17.82)"/>
  </g>
  <g>
    <circle class="cls-2" cx="388.82" cy="115.89" r="71.55"/>
    <g>
      <path d="M319.71,100.26c-.91,6-1.39,12.08-1.45,18.15,2.68-6.66,5.83-13.16,10.12-18.78,4.09-5.37,9.13-9.81,14.13-14.21,3.91-3.44,9.53-6.14,14.58-7.4,4.34-1.08,16.5-1.31,19.03-2.55,3.77-1.85,14.39-2.14,18.54-2.33,12.88-.59-9.26-2.07,3.63-1.63,5.04.17-13.01,6.5,1.08,2.17,3.74-1.15,26.02,4.34,32.52,6.5,3.53,1.18,8.82,4.2,11.92,7.59,3.27,3.56,6.8,8.59,8.83,13.03,1.77,3.86,3.56,7.83,3.93,12.11.37,4.23-.52,9.09,2.14,12.26,1.37-1.96,1.46-4.58,1.5-7.03.12-8.12.21-16.46-2.5-24.04-1.88-5.26-3.19-10.45-6.3-15-7.06-10.33-16.4-20.43-27.09-26.19-4.41-2.38-9.21-3.82-13.99-5.16-4.59-1.28-9.22-2.48-13.92-3.17-10.49-1.55-21.31-.55-31.4,2.9-2.94,1-5.83,2.22-8.52,3.82-5.39,3.21-11.29,7.95-15.65,12.62-6.16,6.6-10.85,13.32-15.31,21.32-5.36,9.61-8.16,20.83-8,32.01"/>
      <path d="M318.27,99.87c-.92,6.15-1.43,12.34-1.51,18.55-.02,1.81,2.35,1.88,2.95.4,2.07-5.12,4.43-10.15,7.43-14.8s6.76-8.7,10.8-12.47c3.83-3.58,7.64-7.09,12.38-9.43,3.62-1.78,7.37-2.86,11.37-3.28,3.76-.4,7.53-.61,11.28-1.12,2.76-.38,5.24-1.53,7.98-1.99,3.8-.64,7.68-.8,11.52-.97,2.09-.09,4.64.14,6.64-.57,1.33-.47,1.69-2.18.41-2.97-.48-.3-1.1-.41-1.65-.52-.7-.14-1.4-.25-2.11-.36-.27-.04-.54-.1-.81-.14-.09-.01-.19-.06-.28-.06-.03,0-.07-.03-.1-.03.36-.02,1.02,1.09,1,1.39l-.44,1.06c-.44.47-1.33.37-.44.39.51,0,1.02,0,1.52.02.72.02,1.46,0,2.17.07.1,0-.1-.15.15.04-.49-.36-.85-.2-.86-1.2,0-.41.23-.54.31-.8-.03.08-.21.22-.27.26.32-.2,0,0-.13.08-.36.23-.73.45-1.11.65-.76.41-1.53.79-2.3,1.18-.69.35-1.54.7-1.77,1.52-.44,1.56,1.12,2.07,2.3,1.83,1.35-.27,2.69-.74,4-1.14.4-.12.8-.26,1.21-.36.39-.1-.21-.01.26-.04.53-.03,1.06-.02,1.59,0,3.28.18,6.54.86,9.75,1.52,3.97.81,7.92,1.74,11.84,2.76,3,.77,6.08,1.5,8.98,2.62,5,1.93,9.2,5.24,12.54,9.39,4.13,5.13,7.49,11.17,9.36,17.51.93,3.14.86,6.23.97,9.46.1,2.89.59,5.62,2.42,7.94.63.8,1.88.42,2.36-.3,2.04-3.13,1.71-7.2,1.74-10.78.04-4.14-.02-8.3-.55-12.42s-1.64-7.75-2.93-11.58-2.46-7.5-4.4-10.93c-1.84-3.25-4.24-6.25-6.57-9.15s-4.91-5.79-7.62-8.44c-5.37-5.25-11.51-9.92-18.47-12.85-3.69-1.56-7.54-2.67-11.4-3.73-4.13-1.14-8.3-2.19-12.53-2.85-8.03-1.24-16.22-1.06-24.19.54s-15.26,4.52-21.82,9.19-11.98,10.01-16.85,16.17c-4.74,6-9.07,12.57-12.27,19.52s-5.28,14.79-5.9,22.61c-.16,2.01-.22,4.02-.2,6.03s3.02,1.93,3,0c-.08-7.55,1.15-15.04,3.67-22.16s6.39-13.52,10.64-19.6c8.42-12.02,19.76-22.84,34.03-27.23,7.45-2.29,15.27-3.24,23.06-2.81s15.79,2.53,23.39,4.86c7.1,2.17,13.43,5.54,19.14,10.29s10.42,10.02,14.7,15.81c2.21,2.99,4.21,6.02,5.58,9.49s2.6,6.99,3.63,10.53c2.17,7.4,2.11,15.5,1.78,23.14-.07,1.71-.3,3.37-1.25,4.83l2.36-.3c-2.3-2.9-1.42-7.4-1.67-10.83-.33-4.62-2.16-8.87-4.07-13.03-3.39-7.39-8.72-14.51-15.78-18.71-4.73-2.81-10.04-4.09-15.32-5.43-5.63-1.42-11.32-2.76-17.07-3.61-2.09-.31-4.42-.76-6.53-.36-1.32.25-2.61.77-3.9,1.14-.44.12-.88.24-1.32.35-.1.02-.28.02-.36.08-.15.1.16-.06.23-.03.19.08.64.11.94.42l.44,1.06c.03.25-.39,1.12-.61,1.16.05,0,.1-.07.15-.09.15-.06.29-.16.43-.24.45-.24.91-.46,1.36-.69.89-.45,1.81-.9,2.63-1.48,1.02-.72,1.96-2,.9-3.16-.96-1.04-3.03-.72-4.28-.74-.89-.02-2.22-.22-2.92.47-1.16,1.16,0,2.42,1.19,2.66.78.16,1.57.25,2.35.39.34.06.69.12,1.02.21.14.04.29.08.43.12.33.07-.17-.08-.29-.21.58.67-.39-2.36.51-2.3-.06,0-.13.05-.19.05-.09,0-.69.12-.32.07-.76.11-1.53.14-2.29.19-2.24.12-4.49.19-6.73.32-2.67.16-5.34.39-7.98.79-1.13.17-2.26.38-3.36.69-.38.11-.75.23-1.11.37-.59.23-.78.35-1.06.44-1.84.59-3.86.7-5.77.89-2.49.24-4.99.43-7.48.69-5.7.59-11.02,2.26-15.95,5.24-3.28,1.98-6.08,4.61-8.9,7.18-2.97,2.7-5.85,5.51-8.41,8.61-5.23,6.31-8.85,13.64-11.9,21.2l2.95.4c.07-5.94.52-11.88,1.4-17.76.28-1.89-2.61-2.7-2.89-.8h0Z"/>
    </g>
    <path d="M324.61,108.84c7.43-7.96,17.18-13.52,27.79-15.93,2.67-.61,5.39-1.01,8.12-1.19,2.99-.19,6.23-.36,9.04.87,2.57,1.13,4.76,3.07,7.17,4.49s5.05,2.66,7.7,3.72c6.18,2.48,12.69,3.99,19.18,5.39,1.68.36,2.57-1.78,1.16-2.74-5.17-3.52-11.06-7.72-12.06-14.35l-1.45,1.9c9.04.09,15.51,7.64,22.32,12.53,3.58,2.57,7.61,4.55,11.63,6.34,2.05.91,4.06,1.49,6.3,1.65s4.49,0,6.69.59c1.61.43,2.69-1.93,1.16-2.74-5.67-3-9.9-8.94-9.15-15.54l-2.8.76c2.63,4.4,7.12,7.53,12.19,8.35,1.15.19,2.52-1.01,1.69-2.2-1.82-2.62-2.58-5.61-2.25-8.78l-2.56,1.06c4.76,4.93,10.52,8.7,16.9,11.19,1.8.7,2.58-2.2.8-2.89-5.89-2.3-11.19-5.88-15.57-10.42-.98-1.01-2.43-.16-2.56,1.06-.37,3.63.58,7.3,2.66,10.3l1.69-2.2c-4.34-.7-8.14-3.18-10.4-6.97-.82-1.38-2.63-.65-2.8.76-.86,7.58,4.14,14.69,10.64,18.13l1.16-2.74c-2.16-.58-4.37-.56-6.59-.65-2.33-.1-4.38-.67-6.48-1.65-4.17-1.94-8.25-4-11.93-6.78-6.89-5.22-13.48-12.04-22.74-12.13-1.07-.01-1.59.96-1.45,1.9,1.12,7.41,7.67,12.22,13.44,16.14l1.16-2.74c-5.93-1.28-11.87-2.65-17.57-4.77-2.84-1.05-5.6-2.31-8.22-3.83s-4.86-3.46-7.54-4.7c-2.88-1.33-6.03-1.48-9.15-1.36-2.8.11-5.6.44-8.36.96-5.58,1.06-10.99,2.98-16.01,5.62-5.62,2.95-10.73,6.85-15.06,11.49-1.32,1.41.8,3.54,2.12,2.12h0Z"/>
    <path d="M330.42,99.29c6.97-.09,13.72-3.19,18.26-8.49.71-.83.5-2.2-.66-2.51-2.05-.54-3.96.03-5.91.69-2.17.73-4.33,1.46-6.5,2.2-4.33,1.46-8.66,2.93-13,4.39-1.81.61-1.08,3.43.8,2.89,10.09-2.9,19.83-6.81,29.56-10.74l-1.46-2.51c-5.35,4.44-11.45,7.97-17.97,10.41l1.16,2.74c6.34-3.46,12.68-6.91,19.01-10.37,1.13-.61.88-2.43-.36-2.74-1.8-.45-3.51-.12-5.25.45-1.95.64-3.88,1.33-5.82,2-3.83,1.31-7.65,2.63-11.48,3.94l1.16,2.74c9.98-6.56,19.97-13.12,29.95-19.68,1.33-.87.5-3.42-1.16-2.74-6.41,2.63-12.33,6.15-17.69,10.54-.58.48-.59,1.65,0,2.12,2.31,1.86,5.1,1.43,7.74.57,3.11-1,6.1-2.37,8.9-4.05,1.66-1,.19-3.49-1.51-2.59-8.11,4.28-16.38,8.23-24.82,11.82l1.51,2.59c10.8-7.51,23.16-12.15,35.41-16.68l-1.16-2.74c-9.17,4.61-17.97,9.92-26.31,15.9-1.59,1.14-.25,3.37,1.51,2.59,7.65-3.38,15.1-7.2,22.31-11.44,1.66-.98.16-3.55-1.51-2.59-6.4,3.68-13.05,6.91-19.91,9.65-.7.28-1.18.85-1.07,1.65.09.66.73,1.4,1.47,1.3,6.69-.88,12.93-4.33,19.74-4.34l-.4-2.95c-7.66,2.28-15.4,4.27-23.21,5.95-1.92.41-1.07,3.19.8,2.89,6.33-1.01,12.65-2.08,18.99-3.02,1.53-.23,3.02-.29,4.54-.02s2.98.64,4.51.74c2.15.13,6.48-.69,7.43,2.05l1.85-1.85c-2.29-.47-4.32-1.4-6.18-2.82l-1.16,2.74c4.43,1.19,8.56,3.08,12.36,5.63l.76-2.8c-4.47-.43-8.85-1.4-13.1-2.83l-.4,2.95c2.07.16,3.97.83,5.72,1.94l1.51-2.59c-2.12-1.01-4.09-2.25-5.86-3.79l-1.06,2.56c3.1.42,5.82,2.21,8.39,3.86s5.35,3.42,8.43,4.29c1.58.45,2.76-2.06,1.16-2.74-4.16-1.77-8.43-3.23-12.82-4.33-1.65-.41-2.61,1.84-1.16,2.74,2.95,1.83,5.89,3.38,9.44,3.47,1.69.04,3.33-.02,4.97.45s3.07,1.27,4.33,2.37l1.06-2.56c-2.46-.16-4.82-.82-7.02-1.94l-1.16,2.74c1.12.21,2.23.41,3.35.62s2.55-1.05,1.69-2.2c-2.9-3.93-5.79-7.85-8.69-11.78l-2.05,2.05c1.98,1.45,3.97,2.9,5.95,4.34l-.74-1.3c-.14,2.88.53,5.67,1.89,8.21.74,1.37,2.73.66,2.8-.76.21-4.5-.34-8.99-1.63-13.3-.46-1.55-3.14-1.35-2.95.4.25,2.23.5,4.47.75,6.7l2.95-.4c-3.02-7.43-1.51-15.7-3.3-23.4-.28-1.21-1.68-1.31-2.51-.66-1.96,1.52-1.94,4.52-2.2,6.76-.36,3.08-.61,6.16-.77,9.25-.07,1.44,2.16,2.11,2.8.76,2.12-4.51,4.09-9.1,5.9-13.75l-2.89-.8c-1.38,5.61-2.75,11.21-4.13,16.82-.46,1.89,2.26,2.61,2.89.8l1.7-4.82-2.89-.8c-.95,2.73-2.32,5.24-4.03,7.56l2.8.76c.3-2.93.58-5.86.42-8.8-.09-1.59-2.66-2.16-2.95-.4-.64,3.96-.94,7.95-.86,11.96l2.26-1.3c-1.28-.99-1.21-3.89-1.36-5.32-.21-2.13-.32-4.28-.31-6.42.02-4.4.52-8.77,1.47-13.06h-2.89c1.19,4.61-.16,9.29-1.45,13.73-.39,1.34,1.56,2.69,2.51,1.46,2.41-3.11,4.09-6.64,4.84-10.51.32-1.67-1.77-2.6-2.74-1.16-3.87,5.75-6.44,12.31-7.49,19.17l2.95.4c.26-3.43.34-6.86.24-10.3-.06-1.93-2.95-1.93-3,0-.07,2.54.17,5.06.66,7.55.29,1.45,2.58,1.42,2.89,0,1.12-5.12,1.84-10.32,2.17-15.55.09-1.45-2.15-2.09-2.8-.76-1.98,4.09-3.62,8.33-4.89,12.69l2.95.4c-.13-3.14.09-6.25.7-9.33l-2.89-.8c-.55,3.67-1.09,7.34-1.64,11-.29,1.92,2.15,2.59,2.89.8,1.15-2.77,1.66-5.73,1.53-8.72-.07-1.67-2.47-2.06-2.95-.4-.81,2.8-1.27,5.68-1.42,8.59l2.95-.4c-.42-2.28-1.19-4.44-2.25-6.49-.62-1.19-2.38-.82-2.74.36-.76,2.44-1.13,4.97-1.1,7.53.02,1.65,2.58,2.1,2.95.4,1-4.61,2-9.23,3-13.84l-2.95-.4c.21,4.36.12,8.73-.32,13.08-.02.25-.05.49-.08.74-.18.67.13.6.93-.21-.03-.15-1.11-.52-1.23-.58-.91-.45-1.81-.92-2.7-1.4-1.85-1.01-3.64-2.12-5.39-3.3l-.76,2.8c2.55-.12,5.01.16,7.46.88l.4-2.95c-4.32.02-8.64.03-12.96.05-1.5,0-2.02,2.03-.76,2.8,2.68,1.64,5.67,2.53,8.81,2.68,1.15.06,1.85-1.31,1.3-2.26-.42-.73-.95-1.25-1.66-1.7l-.76,2.8c1.75.02,3.58.2,5.32.04,1.39-.13,2.48-1.27,2.09-2.71s-2.13-2.49-3.16-3.41c-1.35-1.21-2.7-2.41-4.05-3.62l-.66,2.51c1.95-.42,3.97-.25,5.8.56l.76-2.8c-2.41.18-4.79.58-7.11,1.26-1.42.41-1.43,2.48,0,2.89,2.36.68,4.75,1.26,7.16,1.74.81.16,1.6-.23,1.85-1.05.55-1.84-.45-3.47-2.17-4.14s-2.43,1.82-1.16,2.74c.3.22.61.44.91.66,1.57,1.13,3.07-1.47,1.51-2.59-.3-.22-.61-.44-.91-.66l-1.16,2.74c.19.07.11.33.08.45l1.85-1.05c-2.41-.49-4.79-1.07-7.16-1.74v2.89c2.07-.6,4.16-1,6.31-1.15,1.32-.1,2.24-2.14.76-2.8-2.61-1.16-5.31-1.47-8.11-.86-1.08.23-1.48,1.77-.66,2.51,1.16,1.04,2.33,2.08,3.49,3.13.55.49,1.1.99,1.65,1.48.25.22.49.44.74.66.16.13.32.28.47.42.16.19.16.11.01-.23l.69-.9c-.43.33-1.86.06-2.4.06-.91,0-1.83-.02-2.74-.03-1.54-.02-1.98,2.01-.76,2.8.29.18.41.33.58.63l1.3-2.26c-2.61-.13-5.06-.91-7.29-2.27l-.76,2.8c4.32-.02,8.64-.03,12.96-.05,1.7,0,2.03-2.47.4-2.95-2.68-.79-5.46-1.12-8.26-.99-1.52.07-2,1.96-.76,2.8,2.14,1.44,4.35,2.77,6.63,3.96,1.54.81,4.58,2.95,5.89.69.52-.9.44-2.23.53-3.23.12-1.31.21-2.63.27-3.94.13-2.8.11-5.6-.02-8.39-.08-1.61-2.57-2.13-2.95-.4-1,4.61-2,9.23-3,13.84l2.95.4c-.02-2.31.31-4.52,1-6.73l-2.74.36c.95,1.83,1.58,3.75,1.95,5.77.32,1.73,2.87,1.21,2.95-.4.13-2.65.58-5.24,1.31-7.8l-2.95-.4c.12,2.76-.36,5.38-1.42,7.93l2.89.8c.55-3.67,1.09-7.34,1.64-11,.28-1.86-2.51-2.72-2.89-.8-.66,3.34-.95,6.72-.81,10.12.07,1.67,2.46,2.06,2.95.4,1.2-4.12,2.72-8.11,4.59-11.97l-2.8-.76c-.31,4.97-.99,9.89-2.06,14.75h2.89c-.45-2.23-.62-4.47-.56-6.75h-3c.1,3.44.03,6.87-.24,10.3-.13,1.66,2.69,2.08,2.95.4,1.01-6.63,3.44-12.89,7.19-18.45l-2.74-1.16c-.64,3.34-1.98,6.49-4.07,9.19l2.51,1.46c1.44-4.98,2.78-10.17,1.45-15.33-.36-1.4-2.57-1.46-2.89,0-1.12,5.01-1.67,10.15-1.57,15.29.05,2.52.26,5.02.6,7.52.29,2.13.76,4.01,2.54,5.38.92.71,2.28-.26,2.26-1.3-.07-3.74.16-7.47.76-11.16l-2.95-.4c.16,2.95-.12,5.87-.42,8.8-.17,1.65,2.02,1.8,2.8.76,1.87-2.53,3.3-5.31,4.33-8.28.64-1.83-2.26-2.61-2.89-.8l-1.7,4.82,2.89.8c1.38-5.61,2.75-11.21,4.13-16.82.47-1.91-2.2-2.57-2.89-.8-1.72,4.41-3.58,8.75-5.59,13.03l2.8.76c.13-2.6.33-5.2.6-7.8.14-1.27.26-2.56.46-3.82.14-.89.28-1.7,1.02-2.27l-2.51-.66c1.79,7.71.27,15.93,3.3,23.4.57,1.41,3.15,1.44,2.95-.4-.25-2.23-.5-4.47-.75-6.7l-2.95.4c1.22,4.08,1.72,8.26,1.52,12.51l2.8-.76c-.59-1.1-1.01-2.24-1.27-3.46-.13-.64-.21-1.29-.23-1.95-.02-.6.13-1.31-.11-1.87-.43-1.03-2.13-1.82-2.99-2.45-1.19-.87-2.38-1.74-3.57-2.61s-2.93.86-2.05,2.05c2.9,3.93,5.79,7.85,8.69,11.78l1.69-2.2c-1.12-.21-2.23-.41-3.35-.62-1.56-.29-2.77,1.91-1.16,2.74,2.68,1.38,5.52,2.16,8.53,2.35,1.27.08,2.02-1.72,1.06-2.56-2.58-2.25-5.72-3.54-9.15-3.67-1.83-.07-3.58.04-5.34-.55s-3.31-1.59-4.85-2.55l-1.16,2.74c4.13,1.03,8.19,2.36,12.11,4.02l1.16-2.74c-3.19-.9-5.9-2.84-8.66-4.59s-5.65-3.22-8.96-3.67c-1.28-.17-1.99,1.76-1.06,2.56,1.97,1.7,4.11,3.14,6.47,4.26,1.73.82,3.17-1.54,1.51-2.59-2.2-1.39-4.64-2.15-7.23-2.35-1.76-.13-1.93,2.43-.4,2.95,4.51,1.52,9.16,2.48,13.9,2.94,1.6.15,1.88-2.04.76-2.8-4-2.69-8.42-4.69-13.08-5.93-1.75-.47-2.44,1.77-1.16,2.74,2.04,1.55,4.39,2.6,6.9,3.12,1.04.21,2.25-.69,1.85-1.85-1.04-2.99-3.99-4.1-6.94-4.22-1.79-.07-3.52.05-5.29-.29s-3.43-.74-5.21-.66c-3.55.16-7.15,1.01-10.66,1.57-3.69.59-7.38,1.17-11.07,1.76l.8,2.89c7.81-1.69,15.55-3.67,23.21-5.95,1.6-.48,1.32-2.95-.4-2.95-6.89.01-13.02,3.45-19.74,4.34l.4,2.95c7.1-2.83,14-6.14,20.63-9.95l-1.51-2.59c-7.21,4.24-14.66,8.06-22.31,11.44l1.51,2.59c8.34-5.98,17.14-11.29,26.31-15.9,1.5-.75.45-3.34-1.16-2.74-12.49,4.62-25.13,9.32-36.13,16.98-1.62,1.12-.24,3.34,1.51,2.59,8.43-3.6,16.71-7.54,24.82-11.82l-1.51-2.59c-2.19,1.31-4.48,2.44-6.88,3.31-1.61.58-4.55,1.91-6.13.64v2.12c4.93-4.04,10.47-7.35,16.36-9.77l-1.16-2.74c-9.98,6.56-19.97,13.12-29.95,19.68-1.35.89-.53,3.32,1.16,2.74,3.51-1.21,7.03-2.41,10.54-3.62,1.72-.59,3.44-1.18,5.15-1.77s3.48-1.44,5.26-1l-.36-2.74c-6.34,3.46-12.68,6.91-19.01,10.37-1.46.8-.46,3.35,1.16,2.74,7.03-2.63,13.51-6.38,19.29-11.18,1.12-.93-.08-3.06-1.46-2.51-9.72,3.92-19.47,7.83-29.56,10.74l.8,2.89c4.02-1.36,8.05-2.72,12.07-4.08,2.01-.68,4.02-1.36,6.03-2.04,1.75-.59,3.83-1.65,5.71-1.16l-.66-2.51c-4.04,4.72-9.91,7.53-16.14,7.61-1.93.02-1.93,3.03,0,3h0Z"/>
    <path d="M384.31,93.48c1.93,0,1.93-3,0-3s-1.93,3,0,3h0Z"/>
    <path d="M400.7,70.92c-5.26,0-10.53-.02-15.79-.03v15c2.63-.04,5.25-.05,7.87.27l-1.99-.27c1.75.24,3.46.64,5.1,1.31l-1.79-.76c.75.33,1.46.69,2.16,1.12.6-4.57,1.19-9.14,1.79-13.71-.86.28-1.71.49-2.6.62l1.99-.27c-1.19.15-2.37.16-3.56.04l1.99.27c-.59-.08-1.17-.19-1.76-.32l-1.99,14.73c1.76,0,3.52.01,5.27.22l-1.99-.27c1.3.18,2.55.48,3.77.97l-1.79-.76c3.47,1.5,6.68,3.47,10.62,3.35s7.59-1.83,10.68-4.43c2.54-2.14,4.65-5.37,5.58-8.55,1.08-3.7-.7-8.09-4.17-9.82-2.24-1.12-4.81-1.51-7.29-1.6-4.82-.18-10.12,1.37-12.15,6.17-2.2,5.21.54,10.95,5.55,13.24,6.45,2.95,13.59,3.22,20.56,3.54,3.38.16,6.87.59,10.25.43,4.25-.19,8.02-2.97,8.61-7.33.25-1.88.05-3.83-.98-5.49s-2.93-3.48-5.02-3.76l-1.99,14.73c.24-.03.48-.03.72.03l-1.99-.27.35.1-1.79-.76c.23.09.45.2.66.34-.99-.81-1.19-.96-.61-.46.33.32.66.63.99.94.84.8,1.67,1.59,2.51,2.39,1.67,1.59,3.34,3.19,5.01,4.78,2.84,2.71,7.82,3.03,10.61,0s3.03-7.72,0-10.61c-2.09-1.99-4.18-3.98-6.27-5.97-2.87-2.74-5.85-5.75-10.18-5.52-3.75.2-6.86,2.71-7.37,6.5-.21,1.6-.01,3.39.89,4.78.98,1.51,2.61,3.19,4.48,3.45l.22.03-1.79-.76.18.11-2.69-2.69.13.17-.76-1.79.08.22-.27-1.99c.04.16.04.32,0,.49l.27-1.99-.08.23.76-1.79-.14.19,2.69-2.69c-.16.15-.34.25-.54.32l1.79-.76-.31.07,1.99-.27c-1.59.16-3.27-.08-4.86-.15-1.69-.08-3.38-.16-5.07-.24-3.3-.16-6.6-.27-9.88-.69l1.99.27c-2.53-.35-5.01-.9-7.38-1.85l1.79.76c-.3-.13-1.69-1.02-.63-.19.53.45.58.47.16.07.76,1.09.97,1.29.64.61l.76,1.79c-.08-.22-.13-.45-.15-.68l.27,1.99v-.34c-.08.66-.17,1.33-.26,1.99.02-.23.08-.45.19-.66l-.76,1.79c-.32.56-.74,1.03-1.27,1.39-.6.42-.67.51-.18.25l-1.79.76c.59-.22,1.17-.33,1.79-.41l-1.99.27c1.22-.13,2.41-.12,3.63.02l-1.99-.27c.73.11,1.44.25,2.15.46l-1.79-.76-1.96-1.98-1.02-3.79c.05.21.04.43,0,.64l.27-1.99c-.05.22-.12.43-.22.64l.76-1.79c-.28.62-.6,1.22-.97,1.8-.76,1.18.2-.45.41-.45-.06,0-.68.78-.74.85-.21.23-.44.44-.67.65-1.05.94.33-.41.51-.36-.2-.05-1.63.94-1.89,1.06l1.79-.76c-.67.26-1.34.45-2.05.55l1.99-.27c-.6.06-1.18.06-1.78,0l1.99.27c-.82-.13-1.58-.36-2.34-.67l1.79.76c-2.54-1.11-4.95-2.55-7.69-3.11s-5.68-.71-8.55-.7c-3.74,0-6.87,2.85-7.37,6.5s1.72,7.37,5.37,8.23c3.92.93,8.06.93,11.91-.34,2.87-.94,4.96-3.19,5.37-6.24s-.99-5.88-3.58-7.47c-5.68-3.49-12.43-3.83-18.91-3.72-3.92.06-7.68,3.4-7.5,7.5s3.3,7.49,7.5,7.5c5.26,0,10.53.02,15.79.03,3.92,0,7.68-3.45,7.5-7.5s-3.3-7.49-7.5-7.5h0Z"/>
    <path d="M434.62,98.55c2.35,0,4.61-2.07,4.5-4.5s-1.98-4.5-4.5-4.5c-2.35,0-4.61,2.07-4.5,4.5s1.98,4.5,4.5,4.5h0Z"/>
    <path d="M434.8,99.31c2.35,0,4.61-2.07,4.5-4.5s-1.98-4.5-4.5-4.5c-2.35,0-4.61,2.07-4.5,4.5s1.98,4.5,4.5,4.5h0Z"/>
    <path d="M429.72,86.21c-7.65-.08-15.3-.31-22.94-.67l1.2,8.84c.82-.19-.67-.06-.13.01.2.02.79-.11.17-.03s.06.06.3.11c.77.16-.46-.32-.08-.03.15.11.72.29.19.07s.07.1.24.25c.52.47-.19-.06-.13-.19.09.13.16.26.23.4.15.3.1.18-.16-.36l8.22-3.47c-.84-1.46-1.93-2.47-3.25-3.47-1.78-1.35-4.58-.43-5.81,1.16-1.38,1.78-1.21,4.27.35,5.91,2.77,2.9,5.6,5.68,8.87,8.03.76.54,1.53,1.06,2.3,1.59.35.24.71.49,1.06.74.23.17.47.33.7.5.39.29.46.34.22.16-.3-.24.69.58.81.69.31.27.61.54.91.81.7.64,1.38,1.3,2.06,1.95,1.7,1.63,4.7,1.81,6.36,0,1.79-1.95,1.59-4.4,0-6.36.69.85-.24-.38-.36-.56-.19-.31-.37-.62-.54-.95-.11-.21-.22-.43-.31-.65.21.52.23.54.05.07-.12-.41-.27-.8-.37-1.21-.1-.37-.29-.86-.26-1.24-.07,1.13,0-.14,0-.43-.02-.42-.02-.85,0-1.27.01-.24.03-.48.06-.72-.09.6-.09.64,0,.12.4-2.31-.62-4.96-3.14-5.54-2.19-.5-5.1.66-5.54,3.14-1,5.73.41,11.08,4.06,15.59l6.36-6.36c-2.86-2.75-5.92-5.09-9.17-7.36-.41-.29-.82-.58-1.22-.88.61.45-.31-.25-.43-.35-.71-.58-1.39-1.2-2.06-1.83-1.39-1.31-2.71-2.69-4.03-4.07l-5.45,7.07-.36-.25c.29.32.33.34.13.07-.38-.36.18.3.25.42,1.12,1.95,3.59,2.7,5.62,1.84s3.36-3.19,2.61-5.31c-1.75-4.88-6.59-7.69-11.7-6.52-2.18.5-3.51,2.82-3.22,4.94.3,2.27,2.16,3.79,4.42,3.9,7.64.36,15.29.59,22.94.67,2.35.03,4.61-2.09,4.5-4.5s-1.98-4.47-4.5-4.5h0Z"/>
    <path d="M432.73,111.18c3.86,0,3.87-6,0-6s-3.87,6,0,6h0Z"/>
    <path d="M457.43,99.88c.18,2.27,1.5,3.98,2.42,5.98,1.01,2.18.65,4.68,1.56,6.89.49,1.2,2.05.99,2.21-.3.43-3.38-.21-6.65-1.56-9.75-.64-1.47-1.42-2.87-2.23-4.26s-1.55-2.83-2.73-3.9c-1.07-.97-2.66.61-1.59,1.59s1.68,2.25,2.38,3.45c.76,1.29,1.49,2.61,2.1,3.97,1.27,2.83,1.77,5.82,1.38,8.9l2.21-.3c-.88-2.13-.6-4.52-1.45-6.67-.74-1.86-2.28-3.56-2.45-5.61-.12-1.43-2.37-1.45-2.25,0h0Z"/>
    <path d="M451.68,84.63c1.41.77,2.84,1.51,4.22,2.33,1.19.71,2.35,1.52,3.15,2.67.51.73,1.43.71,1.94,0,1.07-1.48-.85-3.38-1.75-4.42-1.12-1.3-2.39-2.47-3.71-3.57s-2.74-2.16-4.15-3.21c-1.48-1.1-2.95-2.02-4.8-2.27-.6-.08-1.12.57-1.12,1.12,0,.67.52,1.04,1.12,1.12,1.34.18,2.52,1.11,3.58,1.89,1.16.86,2.31,1.72,3.43,2.63s2.16,1.83,3.14,2.85c.48.49.93,1,1.36,1.54.23.28.45.57.65.87.08.11.15.23.23.34.24.35-.06.16.08-.03h1.94c-1.95-2.81-5.27-4.22-8.17-5.81-1.27-.69-2.41,1.25-1.14,1.94h0Z"/>
    <path d="M349.27,91.48c-3.85-.97-6.45,2.67-8.27,5.49-2.11,3.27-3.57,6.95-4.34,10.76l2.21.3c.24-3.88.52-7.87,2.51-11.31.63-1.09-.87-2.29-1.77-1.36-3.88,4.02-7.12,8.6-9.58,13.62l2.06.87c.71-3.65,2.18-7.01,4.39-10,.69-.94-.63-2.08-1.54-1.54-1.66.99-2.67,2.58-4.02,3.91-1.22,1.21-2.62,2.2-4.03,3.17-2.79,1.93-5.65,3.86-7.36,6.89-.71,1.26,1.23,2.4,1.94,1.14,1.64-2.9,4.49-4.64,7.15-6.5,1.26-.88,2.51-1.8,3.63-2.86,1.3-1.23,2.26-2.88,3.82-3.81l-1.54-1.54c-2.31,3.13-3.88,6.72-4.61,10.53-.23,1.17,1.46,2.09,2.06.87,2.38-4.85,5.47-9.28,9.23-13.16l-1.77-1.36c-2.2,3.8-2.55,8.16-2.82,12.45-.08,1.25,1.96,1.55,2.21.3.62-3.07,1.68-6.02,3.22-8.75,1.2-2.13,3.6-6.69,6.62-5.93,1.4.35,2-1.82.6-2.17h0Z"/>
    <path d="M344.06,122.45c3.47-4.08,9.38-5.83,14.59-5.85s11.4,1.88,14.5,6.63c1.05,1.61,3.65.11,2.59-1.51-3.64-5.58-10.29-8.03-16.75-8.11-6.03-.08-13.02,2-17.04,6.73-1.24,1.46.87,3.59,2.12,2.12h0Z"/>
    <path d="M438.38,120.33c-4.04-4.75-10.95-6.94-17.05-6.71s-13.12,2.57-16.74,8.1c-1.06,1.62,1.54,3.13,2.59,1.51,3.06-4.68,9.15-6.52,14.5-6.63s11.09,1.73,14.59,5.85c1.25,1.47,3.37-.66,2.12-2.12h0Z"/>
    <path class="cls-6" d="M372.81,158.79s3.77,6.48,10.06,7.78c0,0,5.92,1.95,13.33-.65,0,0,5.23-1.68,8.05-7.13h-31.44Z"/>
    <path class="cls-14" d="M400.48,158.79l-2.71,5.04c-.11.21-.35.18-.43-.04l-1.89-5h5.03Z"/>
    <path class="cls-14" d="M377.84,158.79l2.71,5.04c.11.21.35.18.43-.04l1.89-5h-5.03Z"/>
    <g>
      <path class="cls-20" d="M373.12,157.13c2.83-.87,4.93-4.25,7.69-5.5,1.7-.77,3.54-.67,5.33-.51,2.75.24,5.95-.28,8.69.19,1.03.18,1.78,1.02,2.58,1.79,1.19,1.15,2.45,3.75,5.92,4.6-2.21.44-4.04-.08-6.03-.64-7.95-2.26-16.25-2.16-24.17.29,4.1.8,16.67.8,27.35.18"/>
      <path class="cls-20" d="M373.52,158.57c2.69-.92,4.37-3.12,6.57-4.77,2.7-2.02,6.15-1.06,9.28-1.15,1.59-.04,3.25-.19,4.83.06,1.2.19,2.09,1.34,2.84,2.24,1.63,1.96,3.34,3.5,5.87,4.18v-2.89c-2.5.43-4.9-.62-7.3-1.18s-5.06-.94-7.61-1.08c-5.16-.28-10.35.4-15.28,1.9-1.32.4-1.53,2.61,0,2.89,3.73.7,7.63.65,11.41.67,5.45.03,10.9-.13,16.34-.44,1.92-.11,1.93-3.11,0-3-5.31.3-10.63.46-15.95.44-3.62-.01-7.43.1-11.01-.57v2.89c5.01-1.52,10.2-2.14,15.42-1.73,2.53.2,5.04.65,7.49,1.32s4.72,1.21,7.28.77c1.51-.26,1.34-2.53,0-2.89-2.48-.67-3.57-2.49-5.26-4.21-1.11-1.14-2.24-2.05-3.85-2.27-1.74-.24-3.49-.16-5.24-.11-3.33.09-6.87-.76-9.92.98-2.41,1.38-4.07,4.12-6.73,5.04-1.82.62-1.04,3.52.8,2.89h0Z"/>
    </g>
    <path d="M320.89,90.83c-1.73,1.03-3.12,2.39-4.22,4.08l2.59,1.51c4.15-8.65,9.84-16.44,16.82-23.01,1.26-1.19-.35-3.18-1.82-2.36-1.92,1.07-3.9,2.04-5.93,2.9l2.05,2.05c1.27-2.81,3.87-4.46,6.25-6.26,2.77-2.09,5.02-4.73,7.75-6.85.86-.66.39-2.34-.66-2.51-2.47-.39-4.88-.34-7.32.23l1.16,2.74c3.16-1.62,6.6-2.5,10.14-2.62l-.4-2.95c-2.3.77-4.64,1.37-7.03,1.8l1.46,2.51c2.68-2.71,6.4-3.76,9.97-4.75,1.86-.52,1.07-3.41-.8-2.89-4.08,1.13-8.25,2.43-11.3,5.52-1.11,1.13.04,2.76,1.46,2.51,2.39-.43,4.73-1.04,7.03-1.8,1.54-.51,1.37-3.01-.4-2.95-4.09.14-8.02,1.17-11.66,3.03-1.56.8-.45,3.12,1.16,2.74,1.88-.44,3.81-.54,5.72-.23l-.66-2.51c-2.83,2.19-5.15,4.92-8.04,7.05-2.5,1.85-5.1,3.75-6.42,6.66-.65,1.43.65,2.65,2.05,2.05,2.03-.86,4-1.83,5.93-2.9l-1.82-2.36c-7.15,6.74-13.04,14.76-17.29,23.62-.83,1.73,1.53,3.15,2.59,1.51.82-1.25,1.86-2.24,3.14-3,1.66-.99.15-3.58-1.51-2.59h0Z"/>
    <path d="M419.83,52.72c4.76-.15,9.48.77,13.81,2.78l1.16-2.74c-2.47-.58-5.03-1.08-7.49-.19-1.41.51-1.43,2.38,0,2.89.54.19.92.95,1.35,1.32.52.44,1.11.71,1.74.95.59.22,1.14.37,1.64.77.53.43.99.91,1.61,1.2,1.33.62,2.89.24,4.31.42,1.57.2,2.99.75,4.25,1.72l1.16-2.74c-2.12-.74-4.32-1.09-6.56-1.06-1.08.01-1.95,1.29-1.3,2.26.72,1.07,1.46,2.15,2.35,3.09.39.42.82.8,1.28,1.15.25.19.51.38.78.55.32.19.66.6.78.02l1.05-1.05c-.53.09-1.05.18-1.58.26-1.53.26-1.32,2.5,0,2.89,1.25.37,2.28,1,3.19,1.92l2.12-2.12c-.93-.82-1.97-1.39-3.2-1.61-1.89-.35-2.7,2.54-.8,2.89.72.13,1.32.35,1.88.84,1.44,1.26,3.49-.73,2.12-2.12-1.27-1.29-2.78-2.18-4.51-2.69v2.89c.53-.09,1.05-.18,1.58-.26.47-.08.95-.58,1.05-1.05.39-1.94-.9-2.59-2.32-3.51s-2.28-2.3-3.17-3.61l-1.3,2.26c1.99-.02,3.88.3,5.76.95,1.75.61,2.39-1.8,1.16-2.74s-2.68-1.58-4.2-1.89c-.77-.16-1.56-.26-2.34-.3-.71-.04-1.65.19-2.31-.09-.56-.24-1.01-.91-1.53-1.24-.61-.39-1.31-.57-1.97-.84-1.29-.52-1.89-1.84-3.26-2.33v2.89c1.97-.71,3.92-.27,5.9.19,1.58.37,2.76-1.99,1.16-2.74-4.81-2.24-10.01-3.36-15.32-3.19-1.93.06-1.93,3.06,0,3h0Z"/>
    <ellipse class="cls-24" cx="384.2" cy="144.15" rx="1.63" ry="2.71" transform="translate(169.49 493.85) rotate(-79.02)"/>
    <ellipse class="cls-24" cx="393.95" cy="144.15" rx="2.71" ry="1.63" transform="translate(-20.25 77.69) rotate(-10.98)"/>
    <path class="cls-15" d="M398.4,164.98c.03.29,0,.4-.06.59-.17.45-.42.87-.59,1.32-.29.77-.4,1.65-.17,2.45.54,1.84,2.82,2.86,4.36,1.45.67-.62.81-1.53.82-2.39,0-.49-.03-.97-.12-1.45,0-.05-.02-.24-.06-.28,0,0,.04.39.04.32,0-.23-.09.39-.03.19.32-1.02.42-2.17.44-3.23.02-.8-.08-1.53-.4-2.26-.12-.27.05.14.04.11-.09-.29,0,.13,0,.1-.02-.29-.08.26,0-.02.06-.19.1-.38.17-.58l-2.95-.4c-.03.24-.1.61-.18.94-.04.18-.09.35-.14.53-.02.08-.15.36-.04.17.06-.06.04-.04-.06.06-.11.13-.21.27-.32.4-.13.2-.21.42-.3.64-.14.35-.27.7-.4,1.04-.12.33-.25.65-.31,1-.1.54-.04,1,.02,1.54.06.63-.16,1.34-.22,2.08-.16,1.81,1.28,3.83,3.29,3.29.86-.23,1.52-.96,1.79-1.8.32-1,0-1.98-.39-2.89-.29-.68-1.26-.88-1.87-.61-.68.3-1.06,1.03-.87,1.77.14.55.43.97.89,1.3.92.66,2.3-.22,2.26-1.3-.04-.87.18-2.05-.26-2.83-.32-.55-1.07-.89-1.69-.69-.79.25-1.05.85-1.13,1.59s.1,1.3.72,1.77,1.68.1,2.05-.54c.18-.31.24-.62.29-.96.02-.16.04-.31.04-.47-.01-.15-.03-.3-.06-.44.04.32.05.41.04.28.03-.42-.05-.95-.13-1.36-.12-.65-.54-1.24-1.21-1.42-.55-.14-1.13.03-1.53.42-.13.13-.25.28-.34.44-.14.22-.22.21.08-.05l.66-.39h-.02c.27,0,.53,0,.8,0h-.02c.22.12.44.25.66.38.39.37.38.81.31.46.1.47.02.21.02.08,0-.19-.01-.38-.01-.57,0-.38.01-.76.05-1.14.07-.81-.74-1.5-1.5-1.5-.87,0-1.43.69-1.5,1.5s-.11,1.65.06,2.43c.16.73.78,1.31,1.55,1.31.41,0,.83-.18,1.11-.47.08-.08.22-.26.29-.39.26-.49.08.23-.64.38h-.8.03c-.22-.12-.44-.25-.66-.38-.04-.03-.33-.63-.28-.45.07.26-.02-.39,0-.08.01.18.03.36.04.53.01.25.04.49.08.74l-.04-.27c0,.14,0,.14,0,.02.02-.12.01-.11-.01.02-.05.18-.03.12.08-.17l2.05-.54h-.01c.25.42.5.86.74,1.29,0-.12.02-.24.03-.36.02-.17,0-.1-.03.22.03-.15-.01-.05-.13.29l-.9.69h0c-.56-.23-1.13-.46-1.69-.69-.12-.21-.19-.43-.19-.67,0,.03,0,.06,0,.09,0,.08,0,.17.01.26,0,.2,0,.39.01.59,0,.35,0,.7.02,1.05l2.26-1.3-.04-.03.54.54c-.13-.19.07.31-.01-.02l-2.74,1.16c.05.12.07.36.11.43.17.25-.12-.05.04-.03.05-.09.04-.06-.04.07l.07-.08c.24-.09.4-.15.66-.06.21.08-.02.12.06.06,0,0-.02-.04-.02-.08-.02-.1-.03-.11,0-.01v-.17c0-.11,0-.22.02-.34-.02.17.02-.08.03-.12.03-.15.06-.31.08-.46.12-.72.08-1.32.03-2.01-.01-.18,0-.34,0-.4.06-.26.17-.5.26-.75s.25-.54.3-.8c.03-.15.02-.07-.03,0-.07.13.11-.13.14-.16.82-.98.99-2.41,1.13-3.63.08-.73-.63-1.39-1.3-1.47-.76-.09-1.41.35-1.65,1.07-.21.65-.36,1.33-.19,2.01.01.06.04.11.06.16.32.87.11.22.1.23,0,0,.07.23.08.23.02.07.03.13.04.2-.02-.2-.03-.2,0,0,0,.39,0,.77-.02,1.15-.01.18-.03.36-.05.55-.03.39.04-.19-.02.14-.07.41-.18.81-.25,1.21-.11.63.05,1.15.06,1.73,0,.21,0,.42,0,.63,0,.33-.03.05.05-.03.14-.15.23-.22.44-.26.16.03.19.04.08,0-.1-.03-.08-.02.06.02.07.03.12.08.15.15-.08-.15-.09-.16-.03-.02l-.04-.14c0,.17,0,.16,0-.02-.01-.15.11-.58.17-.73.38-.9.88-1.74.78-2.75-.08-.81-.63-1.5-1.5-1.5-.75,0-1.58.69-1.5,1.5h0Z"/>
    <path class="cls-3" d="M402.41,170.02c.06-.62.11-1.26-.04-1.87-.07-.28-.18-.57-.35-.8-.1-.14-.23-.27-.4-.32-.21-.06-.39,0-.56.13-.12.1-.14.33-.06.45.25.37.48.74.54,1.18.02.19.02.42.02.63,0,.23-.06.51.05.72.17.32.6.3.79,0,.11-.18.16-.44.19-.65.07-.49-.02-.98-.26-1.42l-.51.51c.08.05-.07-.05,0,0,.02.02.02.04,0,0,0,.03.01.05.02.08.02.06,0-.05,0,0,0,.02,0,.05,0,.07,0,.05,0,.11,0,.16,0,.36.53.53.7.19.25-.51-.1-.99-.34-1.43l-.59.45c.14.15.22.38.23.57h.75c-.02-.22-.09-.4-.2-.59-.02-.03-.04-.06-.05-.1,0-.01-.07-.14-.04-.07-.01-.03-.02-.06-.03-.1.02.07,0-.04,0-.07.02-.2-.19-.38-.38-.38-.22,0-.35.17-.38.38s.05.41.15.58c.04.08.09.15.12.22,0,.01.04.11.02.04,0,.02.03.15.02.07.02.2.16.38.38.38.2,0,.38-.17.38-.38-.01-.42-.17-.79-.45-1.1-.29-.32-.79.09-.59.45.09.15.17.31.26.46.03.06.05.1.07.15,0,0,.02.12.02.06,0,.05-.01.04,0,0l.7.19c0-.37-.07-.75-.41-.97s-.69.2-.51.51c.11.2.18.43.19.65,0,.12,0,.23-.03.33-.01.06-.03.12-.05.18-.01.04-.02.07-.03.11,0,.01,0,.03-.01.04-.03.07,0,.04.09-.1l.19-.05h.04c.06.04.11.07.17.1.04.04.06.08.06.13,0-.03,0-.07,0-.1,0-.06,0-.11,0-.17,0-.12,0-.25,0-.37,0-.24-.02-.49-.06-.73-.09-.47-.34-.88-.6-1.27l-.06.45c-.07.07-.15.08-.23.04-.02-.02-.01-.02.02.02-.03-.04.03.05.04.06.04.07.1.18.12.23.07.18.13.42.15.58.06.47.01.95-.03,1.42-.02.2.19.38.38.38.22,0,.36-.17.38-.38h0Z"/>
    <path class="cls-4" d="M323.54,145.21s14.58,2.73,22.17,11.41c0,0,2.17,9.76,8.67,17.35,0,0,1.08,3.25,8.12,8.47,0,0-24.27-7.43-38.96-37.22Z"/>
    <path class="cls-4" d="M453.03,146.86s-14.05,1.08-21.64,9.76c0,0-2.17,9.76-8.67,17.35,0,0-1.08,3.25-8.12,8.47,0,0,23.74-5.78,38.43-35.57Z"/>
  </g>
</svg>