<?xml version="1.0" encoding="UTF-8"?>
<svg id="Lag_1" data-name="Lag 1" xmlns="http://www.w3.org/2000/svg" xmlns:xlink="http://www.w3.org/1999/xlink" viewBox="0 0 614.7 548.1">
  <defs>
    <style>
      .cls-1 {
        fill: #ccaaaf;
      }

      .cls-2 {
        fill: #ccaaaf;
      }

      .cls-3 {
        fill: #cca3a6;
      }

      .cls-4 {
        fill: #991826;
      }

      .cls-5 {
        font-size: 75.07px;
      }

      .cls-6 {
        font-size: 98.17px;
      }

      .cls-7 {
        font-size: 103.95px;
      }

      .cls-8 {
        fill: url(#Ikke-navngivet_forløb_115);
      }

      .cls-9, .cls-10 {
        fill: #fff;
      }

      .cls-11 {
        fill: #720009;
      }

      .cls-12 {
        fill: url(#Ikke-navngivet_forløb_171);
        isolation: isolate;
      }

      .cls-10 {
        font-family: SnellRoundhand-Bold, 'Snell Roundhand';
        font-weight: 700;
      }

      .cls-13 {
        fill: #cb8e95;
      }

      .cls-14 {
        fill: url(#Ikke-navngivet_forløb_4);
      }

      .cls-15 {
        fill: url(#Ikke-navngivet_forløb_3);
      }

      .cls-16 {
        fill: url(#Ikke-navngivet_forløb_5);
      }

      .cls-17 {
        fill: url(#Ikke-navngivet_forløb_7);
      }

      .cls-18 {
        fill: #d8658a;
      }
    </style>
    <linearGradient id="Ikke-navngivet_forløb_4" data-name="Ikke-navngivet forløb 4" x1="39.53" y1="261.54" x2="470.12" y2="86.14" gradientUnits="userSpaceOnUse">
      <stop offset="0" stop-color="#3a050e"/>
      <stop offset=".32" stop-color="#600611"/>
    </linearGradient>
    <linearGradient id="Ikke-navngivet_forløb_7" data-name="Ikke-navngivet forløb 7" x1="263.47" y1="399.95" x2="332.87" y2="329.7" gradientUnits="userSpaceOnUse">
      <stop offset="0" stop-color="#3a050e"/>
      <stop offset=".32" stop-color="#600611"/>
    </linearGradient>
    <linearGradient id="Ikke-navngivet_forløb_5" data-name="Ikke-navngivet forløb 5" x1="414.56" y1="454.5" x2="511.07" y2="415.89" gradientUnits="userSpaceOnUse">
      <stop offset="0" stop-color="#6d131f"/>
      <stop offset=".65" stop-color="#991826"/>
    </linearGradient>
    <radialGradient id="Ikke-navngivet_forløb_171" data-name="Ikke-navngivet forløb 171" cx="512.44" cy="460.63" fx="512.44" fy="460.63" r="15.82" gradientUnits="userSpaceOnUse">
      <stop offset=".85" stop-color="#e484a0"/>
      <stop offset="1" stop-color="#c85e88"/>
    </radialGradient>
    <linearGradient id="Ikke-navngivet_forløb_115" data-name="Ikke-navngivet forløb 115" x1="511.21" y1="455.64" x2="511.67" y2="474.63" gradientUnits="userSpaceOnUse">
      <stop offset="0" stop-color="#ca4d80"/>
      <stop offset=".01" stop-color="#cb5182"/>
      <stop offset=".1" stop-color="#d56692"/>
      <stop offset=".2" stop-color="#dc779d"/>
      <stop offset=".33" stop-color="#e183a5"/>
      <stop offset=".51" stop-color="#e48aaa"/>
      <stop offset="1" stop-color="#e58cac"/>
    </linearGradient>
    <linearGradient id="Ikke-navngivet_forløb_3" data-name="Ikke-navngivet forløb 3" x1="523.17" y1="224.4" x2="628.17" y2="224.4" gradientTransform="translate(605.65 71.83) rotate(115.4)" gradientUnits="userSpaceOnUse">
      <stop offset=".46" stop-color="#720009"/>
      <stop offset="1" stop-color="#3f000b"/>
    </linearGradient>
  </defs>
  <g>
    <path class="cls-14" d="M28.54,107.03c4.15-26.88,12.76-50.65,36.04-65.77,27.77-18.03,64.56-12.77,97.27-6.13s68.72,13.56,97.99-2.08c16.59-8.86,29.33-24.33,47.3-30.13C316.25-.02,326.04-.22,335.64.12c34.75,1.25,70.45,10,97.03,31.75,7.54,6.17,14.43,13.61,17.45,22.72,2.29,6.92,2.2,14.33,2.08,21.59-.19,12.19-.44,24.71-5.12,36.03-5.89,14.24-18.48,25.82-21.11,40.95-2.82,16.23,6.57,31.95,16.59,45.23,10.02,13.28,21.46,26.74,23.68,43.05,2.41,17.69-6.72,35.04-18.14,49.04-15.65,19.18-37.15,35-62.02,39.1-33.63,5.54-66.55-10.66-100.12-16.55-25.24-4.43-51.56-2.93-76.09,4.33-12.11,3.58-23.82,8.55-36.24,10.91-16.52,3.14-35.45,11.92-52.2,10.31-15.84-1.52-32.45-14.66-39.9-28.3-16.08-29.45,5.05-41.95-6.14-58.72-3.83-5.75-10.11-9.45-16.17-12.96-9.16-5.3-18.33-10.61-27.49-15.91-8.36-4.84-16.93-9.85-22.92-17.31-14.18-17.66-9.64-43.89,2.24-63.08,6.99-11.29,16.49-22.1,17.34-35.24"/>
    <text class="cls-10" transform="translate(97.8 150.78) scale(1.03 1)"><tspan class="cls-7" x="0" y="0">E</tspan><tspan class="cls-5" x="71.2" y="0">ternal</tspan><tspan class="cls-6" x="43.61" y="90.09">L</tspan><tspan class="cls-5" x="99.96" y="90.09">ove</tspan></text>
    <ellipse class="cls-17" cx="287.86" cy="375.27" rx="50.02" ry="41.58"/>
    <path class="cls-2" d="M352.76,26.41c3.75-3.17,20.37-2.33,30.2,1.29,3.53,1.3,6.86,3.26,10.17,5.2,3.93,2.31,7.88,4.63,11.45,7.64,9.82,8.25,16.38,21.71,17.5,35.9.08,1.06.13,2.18-.3,3.12-.5,1.09-1.53,1.67-2.52,2.06-4.96,1.92-10.76.37-14.55-3.87-3.19-3.57-4.83-8.59-7.02-13.09-6.77-13.93-19.73-23.37-33.3-24.25-2.96-.19-5.97-.01-8.81-1s-5.56-3.48-6.03-6.94,2.34-7.32,5.18-6.32"/>
    <path class="cls-2" d="M421.49,81.39c1.83-1.8,2.18-4.34,2.06-6.8-.15-3-.57-6.05-1.34-8.96-1.44-5.41-4.37-10.35-9.03-13.55-1.59-1.1-3.1,1.5-1.51,2.59,3.87,2.66,6.28,6.87,7.53,11.32.68,2.41,1.06,4.9,1.27,7.39.16,1.96.44,4.39-1.09,5.89-1.38,1.35.74,3.47,2.12,2.12h0Z"/>
    <path class="cls-2" d="M419.56,78.98l-1.1.5,1.51,2.59c.49-.24.94-.59,1.28-1.01h-2.12c-.41-.79-.36-1.36.15-1.7-.06.04-.12.07-.19.1-.06.03-.55.23-.22.1-.28.11-.55.21-.84.3s-.57.17-.86.23c-.17.04-.33.07-.5.1-.08.01-.17.03-.25.04.17-.02.2-.03.08-.01-.31.02-.63.05-.94.05-.12,0-.25,0-.37-.01-.07,0-.61-.05-.22,0-.28-.03-.57-.1-.85-.18-.16-.05-.31-.1-.47-.16-.16-.06-.15-.06.01,0-.08-.03-.15-.07-.22-.11-.7-.35-1.66-.21-2.05.54-.36.68-.21,1.68.54,2.05,1.8.9,3.77,1.03,5.73.65.92-.18,1.8-.5,2.66-.87.51-.22.97-.51,1.26-1.01.39-.69.31-1.71-.32-2.23-.57-.47-1.58-.68-2.12,0-.05.06-.1.13-.16.19-.03.03-.28.26-.13.13.13-.11-.07.05-.1.06-.09.06-.18.1-.28.15-.71.34-.95,1.41-.54,2.05.48.74,1.29.89,2.05.54l1.1-.5c.72-.33.95-1.42.54-2.05-.48-.74-1.29-.89-2.05-.54h0Z"/>
    <path class="cls-2" d="M429.01,71.43c-.35-3.49-.77-7.04-1.84-10.39s-2.49-6.73-4.27-9.78c-1.22-2.08-2.66-4.03-4.12-5.95-2.2-2.88-4.38-5.78-6.91-8.38-7.71-7.94-17.77-13.78-28.38-16.84-3.72-1.07-7.65-1.76-11.51-1.92-2.81-.11-5.61.23-8.41-.1l3.99.54c-.75-.11-1.47-.26-2.19-.48-3.69-1.09-8.26-.42-11.56,1.51-3.11,1.82-6.08,5.39-6.89,8.96-.87,3.84-.69,8.15,1.51,11.56s5.12,5.76,8.96,6.89c3.2.95,6.68,1.23,10.02,1.17,2.23-.04,4.44-.15,6.66.13l-3.99-.54c3.81.55,7.52,1.72,11.07,3.2l-3.58-1.51c3.91,1.67,7.58,3.81,10.96,6.38l-3.04-2.35c3.64,2.83,6.78,6.13,9.6,9.77l-2.35-3.04c2.37,3.09,4.59,6.26,6.12,9.86l-1.51-3.58c.99,2.44,1.68,4.96,2.06,7.57l-.54-3.99c.06.43.11.87.15,1.3-.08,2.07.35,3.99,1.29,5.78.6,1.86,1.64,3.47,3.1,4.83,2.6,2.6,6.87,4.56,10.61,4.39s7.9-1.45,10.61-4.39c2.54-2.76,4.78-6.71,4.39-10.61h0Z"/>
    <path class="cls-2" d="M360.2,23.96c-.2.02-.39.02-.59,0l2.79.38c-.21-.03-.42-.09-.62-.17l2.51,1.06c-.18-.08-.35-.17-.5-.29l2.13,1.64c-.1-.07-.19-.16-.27-.24-.95-1.02-2.08-1.75-3.38-2.17-1.25-.66-2.6-.96-4.05-.9-1.45-.05-2.79.25-4.05.9-1.3.42-2.43,1.15-3.38,2.17l-1.64,2.13c-.95,1.64-1.43,3.4-1.43,5.3l.38,2.79c.5,1.78,1.4,3.32,2.7,4.63.06.07.13.13.2.19.02.02.04.03.06.05.36.28.72.55,1.07.83.36.28.72.56,1.09.84.04.03.07.05.11.08.08.05.16.1.24.14.89.44,1.82.82,2.75,1.16.09.03.18.06.27.08.05.01.09.02.14.03.03,0,.05,0,.08.01h.03c.93.13,1.86.25,2.79.38.2.02.39.03.59,0,1.45.05,2.79-.25,4.05-.9,1.3-.42,2.43-1.15,3.38-2.17,1.02-.95,1.75-2.08,2.17-3.38.66-1.25.96-2.6.9-4.05l-.38-2.79c-.5-1.78-1.4-3.32-2.7-4.63l-2.13-1.64c-1.64-.95-3.4-1.43-5.3-1.43h0Z"/>
    <path class="cls-2" d="M366.49,28.86l-.06-.21.38,2.79.02-.22-.38,2.79.08-.21-1.06,2.51.13-.19-1.64,2.13.16-.16-2.13,1.64c.12-.09.25-.17.4-.22l-2.51,1.06c.71-.24,1.46-.33,2.2-.43l-2.79.38c3.47-.43,7.13-.32,10.6.08l-2.79-.38c.6.08,1.17.21,1.73.44l-2.51-1.06c.31.15.58.31.85.52,1.64.95,3.4,1.43,5.3,1.43,1.9,0,3.66-.48,5.3-1.43,3.29-1.92,5.06-5.33,5.2-9.07.01-.29.02-.59.03-.88.1-2.63-1.24-5.59-3.08-7.42s-4.81-3.19-7.42-3.08-5.53,1.01-7.42,3.08-2.97,4.55-3.08,7.42c-.01.29-.02.59-.03.88l15.8-9.07c-.64-.49-1.35-.73-2.11-1.05-.69-.29-1.37-.63-2.09-.81-1.57-.39-3.23-.53-4.85-.64-1.8-.12-3.61-.22-5.42-.22-2.59,0-5.17.31-7.73.75-2.35.4-4.6,1.57-6.31,3.22-1.43,1.37-2.37,3.13-2.99,4.99s-.55,4.26-.04,6.23c.66,2.53,2.58,4.96,4.83,6.28s5.57,1.88,8.09,1.06,4.99-2.4,6.28-4.83,1.79-5.29,1.06-8.09h0Z"/>
    <path class="cls-2" d="M367.03,45.05c1.51.41,3.12.58,4.67.71.69.06,1.39.04,2.08-.05,1.45.05,2.79-.25,4.05-.9,1.3-.42,2.43-1.15,3.38-2.17,1.02-.95,1.75-2.08,2.17-3.38.66-1.25.96-2.6.9-4.05l-.38-2.79c-.5-1.78-1.4-3.32-2.7-4.63l-2.13-1.64c-1.64-.95-3.4-1.43-5.3-1.43-1.97-.16-3.91.19-5.86.47l-2.51,1.06-2.13,1.64-1.64,2.13c-.77,1.21-1.18,2.51-1.25,3.9-.25.93-.25,1.86,0,2.79,0,.95.24,1.83.72,2.65.25.89.7,1.66,1.35,2.32.74,1.14,1.72,2.04,2.95,2.7.67.39,1.39.65,2.1.96s1.41.63,2.16.82l2.79-20.62c-1.72-.18-3.44-.36-5.16-.54v21c.88-.08,1.75-.03,2.63.09l-2.79-.38c2.2.31,4.38.86,6.56,1.31,1.4.44,2.79.5,4.19.19,1.4-.06,2.7-.48,3.9-1.25,1.22-.66,2.21-1.56,2.95-2.7.93-1.01,1.55-2.2,1.88-3.57l.38-2.79c0-1.9-.48-3.66-1.43-5.3l-1.64-2.13c-1.31-1.3-2.85-2.2-4.63-2.7-1.58-.33-3.16-.67-4.73-.99s-3.24-.54-4.88-.73c-.79-.09-1.58-.12-2.37-.05-1.45-.05-2.79.25-4.05.9-1.3.42-2.43,1.15-3.38,2.17-1.02.95-1.75,2.08-2.17,3.38-.66,1.25-.96,2.6-.9,4.05l.38,2.79c.5,1.78,1.4,3.32,2.7,4.63l2.13,1.64c1.64.95,3.4,1.43,5.3,1.43,1.72.18,3.44.36,5.16.54,1.45.05,2.79-.25,4.05-.9,1.3-.42,2.43-1.15,3.38-2.17l1.64-2.13c.77-1.21,1.18-2.51,1.25-3.9.25-.93.25-1.86,0-2.79-.06-1.4-.48-2.7-1.25-3.9l-1.64-2.13c-1.31-1.3-2.85-2.2-4.63-2.7-.31-.08-.61-.18-.91-.29l2.51,1.06c-.29-.12-.57-.27-.85-.43l-2.51,19.19.17-.02-2.79.38c.96-.13,1.93-.15,2.9-.08v-21c-.87.1-1.73.1-2.6,0l2.79.38c-.46-.07-.91-.16-1.36-.28-1.4-.44-2.79-.5-4.19-.19-1.4.06-2.7.48-3.9,1.25-1.22.66-2.21,1.56-2.95,2.7-.93,1.01-1.55,2.2-1.88,3.57l-.38,2.79c0,1.9.48,3.66,1.43,5.3l1.64,2.13c1.31,1.3,2.85,2.2,4.63,2.7h0Z"/>
    <path class="cls-1" d="M391.63,36.5c-5.12-2.73-10.65-4.63-16.29-5.99-2.53-.61-5.08-1.12-7.64-1.61s-5.38-.69-7.81-1.66l1.79.76c-.3-.15-1.24-.79-.18,0,.36.2.65.49.85.86.41.6.48.66.2.19l.76,1.79c-.1-.21-.16-.42-.2-.65-.85-3.84-5.51-6.44-9.23-5.24-4.03,1.3-6.15,5.12-5.24,9.23,1.77,8,11,8.35,17.47,9.65,5.36,1.08,10.69,2.38,15.75,4.48l-1.79-.76c1.35.58,2.68,1.2,3.97,1.89,3.46,1.84,8.32.99,10.26-2.69,1.84-3.48,1.01-8.29-2.69-10.26h0Z"/>
    <path class="cls-2" d="M414.59,120.26c3.46,0,7.1-1.51,9.55-3.95s4.1-6.18,3.95-9.55-1.3-7.11-3.95-9.55-5.89-3.95-9.55-3.95c-3.46,0-7.1,1.51-9.55,3.95s-4.1,6.18-3.95,9.55,1.3,7.11,3.95,9.55,5.89,3.95,9.55,3.95h0Z"/>
    <path class="cls-1" d="M306.95,357.48c.52-.05,1.02-.04,1.54.03l-1.99-.27c.66.11,1.29.31,1.9.57l-1.79-.76c1.11.5,2.12,1.17,3.08,1.9l-1.52-1.17c1.58,1.22,3.22,2.52,4.46,4.1l-1.17-1.52c.34.45.62.91.85,1.43l-.76-1.79c.12.31.21.63.26.96l-.27-1.99c.04.34.03.66-.01,1l12.8-5.3c-.22-.19-.4-.38-.58-.61l1.17,1.52c-1.17-1.62-2.22-3.29-3.56-4.81s-2.82-2.66-4.39-3.84c-2.67-2.01-5.9-3.47-9.14-4.27v14.46c.12-.04.25-.07.38-.09l-1.99.27c.13-.01.26-.01.39,0l-1.99-.27c.21.03.37.08.56.16,1,.31,1.99.36,2.99.13,1-.05,1.93-.34,2.79-.89,1.56-.91,3.04-2.69,3.45-4.48.44-1.92.34-4.07-.76-5.78l-1.17-1.52c-.94-.93-2.04-1.57-3.31-1.93-.81-.33-1.88-.43-2.66-.43-.87,0-1.83.12-2.67.36-1.58.45-2.9,1.4-3.9,2.69s-1.68,2.9-1.61,4.54c.06,1.33.4,2.61,1.02,3.79.84,1.58,2.76,3.02,4.48,3.45.99.25,1.95.56,2.89.95l-1.79-.76c1.62.68,3.14,1.56,4.54,2.63l-1.52-1.17c1.33,1.03,2.52,2.21,3.56,3.54l-1.17-1.52c.39.51.75,1.03,1.09,1.57.65,1.03,1.35,2.13,2.28,2.92.98.83,2.05,1.58,3.31,1.93,1.63.45,3.34.27,4.88-.38,1.23-.52,2.18-1.25,3-2.31.46-.47.79-1.02.96-1.65.47-.89.68-1.86.65-2.89.38-2.86-1.02-5.74-2.71-7.93-1.16-1.5-2.45-2.74-3.9-3.95-1.61-1.33-3.26-2.74-5.13-3.7-1.18-.6-2.47-1.2-3.77-1.51s-2.73-.53-4.07-.4c-1.03-.04-2,.18-2.89.65-.93.3-1.73.82-2.41,1.55-1.3,1.3-2.28,3.44-2.2,5.3s.72,3.95,2.2,5.3c1.38,1.27,3.35,2.39,5.3,2.2h0Z"/>
    <polygon class="cls-9" points="278.03 359.88 278.03 392.88 308.4 376.38 278.03 359.88"/>
  </g>
  <g>
    <path class="cls-4" d="M510.31,382.55c9.69-20.52,22.18-33.54,44.5-36.06,21.09-2.39,44.18,2.82,54,23.27,9.5,19.77,7.08,45.05-4.17,63.85-22.8,38.11-59.79,65.79-99.85,82.24"/>
    <path class="cls-16" d="M510.31,382.55c-8.76-27.17-34.4-39.48-58.52-37.59-31.71,2.48-51.21,28.77-43.88,61.77,6.37,28.66,22.51,45.9,39.59,64.44,19.13,20.75,35,30.31,57.29,44.69"/>
    <path class="cls-12" d="M491.27,456.31c.58,1.79,2.61,3.86,5.96,6.26,2.8,2,5.32,3.11,7.35,3.47.14.02.3.19,1.13.48,0,0,.39.14.82.25,2.55.69,5.26.7,5.26.7s2.34.02,4.45-.46c.47-.11.96-.23,1.47-.38.6-.17,2.97-.97,3.5-1.16,2.01-.88,1.89-.66,4.64-2.25,2.5-1.44,4.86-3.87,6.27-5.39.68-.41,1.83-2.04,1.61-2.8s-1.81-1.23-2.61-1.23l-38.96.39c-.54.79-1.35.7-.89,2.12Z"/>
    <ellipse class="cls-8" cx="511.31" cy="459.81" rx="13.07" ry="7.65"/>
    <path class="cls-9" d="M495.21,451.49c.91,3.87,2.44,7.56,3.36,11.43.12.51.9.63,1.14.15,1.3-2.58,2.2-5.33,3.36-7.97.32-.73-.76-1.37-1.08-.63-1.15,2.64-2.06,5.39-3.36,7.97l1.14.15c-.91-3.87-2.44-7.56-3.36-11.43-.18-.78-1.39-.45-1.21.33h0Z"/>
    <path class="cls-9" d="M498.52,457.72v-6.36c0-.8-1.25-.81-1.25,0v6.36c0,.8,1.25.81,1.25,0h0Z"/>
    <path class="cls-9" d="M500.06,458.91c.39-.9.54-1.88.72-2.84.09-.51.18-1.03.3-1.53.05-.22.1-.44.16-.66.03-.11.06-.21.1-.32.02-.04.03-.09.05-.13.01-.03.07-.18.02-.05.13-.31.09-.67-.22-.86-.26-.15-.72-.09-.86.22-.39.9-.54,1.88-.72,2.84-.09.51-.18,1.03-.3,1.53-.05.22-.1.44-.16.66-.03.11-.06.21-.1.32-.02.04-.03.09-.05.13-.01.03-.07.18-.02.05-.13.31-.09.67.22.86.26.15.72.09.86-.22h0Z"/>
    <path class="cls-9" d="M495.97,452.63c-.09-1.41-.18-2.81-.27-4.22-.02-.34-.27-.62-.62-.62s-.59.29-.62.62c-.07.67-.14,1.34-.21,2.01h1.25c.02-.39.03-.79.05-1.18.01-.34-.3-.62-.62-.62-.35,0-.61.29-.62.62-.02.39-.03.79-.05,1.18-.01.34.3.62.62.62.37,0,.59-.29.62-.62.07-.67.14-1.34.21-2.01h-1.25c.09,1.41.18,2.81.27,4.22.02.34.27.62.62.62.32,0,.65-.29.62-.62h0Z"/>
    <path class="cls-9" d="M528.89,450.36c-1.33,4.04-2.66,8.08-4,12.12h1.21c-.64-2.11-1.47-4.17-2.23-6.24-.34-.92-.68-1.85-.95-2.8-.09-.31-.19-.64-.23-.96.01.09,0-.22,0-.23.09.09-.25.36-.23.35-.1.06-.47.01-.42.04l.15-1.14c-.83.32-1.29,1.07-.98,1.95.33.96,1.33,1.42,2.29,1.32,1.06-.1,2.04-.78,2.45-1.77.52-1.27-.16-2.58-.77-3.68-.39-.7-1.47-.07-1.08.63.6,1.06,1.37,2.6-.05,3.37-.42.23-1.04.35-1.44.02-.19-.15-.41-.51-.09-.64.47-.18.66-.87.15-1.14-.76-.41-1.28.22-1.22.95.08.96.47,1.91.78,2.81.87,2.5,1.91,4.95,2.68,7.49.18.6,1.01.58,1.21,0,1.33-4.04,2.66-8.08,4-12.12.25-.77-.95-1.09-1.21-.33h0Z"/>
    <path class="cls-9" d="M526.49,457.57c.67-.32.83-1.26.76-1.92-.08-.77-.49-1.65-1.39-1.65-.96,0-1.57,1.03-1.7,1.87-.16,1.04.07,2.13.62,3.03.26.42,1.05.41,1.14-.15.41-2.42.82-4.83,1.23-7.25.06-.33-.09-.67-.44-.77-.3-.08-.71.1-.77.44-.41,2.42-.82,4.83-1.23,7.25l1.14-.15c-.49-.8-.89-2.35-.01-3.02.01-.01.01,0,.03.04.06.12.11.28.13.44.02.2,0,.37-.03.54-.03.12-.03.11-.08.2-.02.04.01,0-.04.02-.31.14-.38.58-.22.86.18.31.55.37.86.22h0Z"/>
    <path class="cls-18" d="M492.56,454.22h40.22c2.63,0,3.92-3.21,2.03-5.05-7.41-7.23-12.24-9.12-14.4-9.61-.64-.15-1.83-.62-3.3-.62-4.73,0-3.24.24-10.12.04-4.24-.12-11.45,5.6-16.42,10.07-2.02,1.82-.74,5.16,1.98,5.16Z"/>
    <path class="cls-13" d="M591.75,414.03c-11.71.62-10.11-11.51-20.6-21.76-9.76-9.55-25.25-9.81-20.28-21.11s26.16-5.18,38.19,9.01c12.01,14.16,14.81,33.23,2.68,33.87Z"/>
  </g>
  <g>
    <circle class="cls-15" cx="156.01" cy="495.58" r="52.5"/>
    <path class="cls-11" d="M111.51,468.08s27.15-38,44.25-100.07c0,0,10.56,49.57,44.25,99.07l-88.5,1Z"/>
    <path class="cls-3" d="M196.1,502.23c5.24-13.79-.19-28.51-12.31-36.5-3.38-2.23-7.68.09-8.81,3.59-.8,2.47-.37,4.86,1.28,6.89.73.9,1.66,1.31,2.52,1.99,2.93,2.31.07-1.11,1.91,2.05,3.06,5.23,2.42,13.4,2.49,19.21.08,6.66,10.09,8.28,11.79,1.6,2.36-9.28-1.87-18.43-5.97-26.61-3.47-6.9-13.82-.83-10.36,6.06,2.49,4.96,6.21,11.67,4.76,17.36l11.79,1.6c-.08-6.65-.21-13.49-2.1-19.92-.77-2.62-1.77-5.42-3.34-7.68-.82-1.19-1.79-2.22-2.98-3.04l-1.02-.65c-1.9-.97-1.92-.79-.06.54l.6,4.62.27-.82-8.81,3.59c7.92,5.22,10.08,14.3,6.8,22.94-2.75,7.23,8.85,10.35,11.57,3.19h0Z"/>
    <path class="cls-3" d="M183.62,468.89h-.21c.53.06,1.06.14,1.6.21-.14-.02-.28-.06-.41-.12l1.43.6-.18-.11c-2.56-1.56-5.96-.76-7.74,1.55s-1.61,5.69.47,7.88c.09.09.18.18.25.29l-.94-1.21c.15.21.28.42.38.66l-.6-1.43c.07.18.12.36.17.55l10.97-4.62c-.75-1.06-1.5-2.11-2.25-3.17-.93-1.3-2-2.32-3.59-2.76-1.44-.4-3.35-.22-4.62.6s-2.41,2.06-2.76,3.59-.32,3.32.6,4.62c.75,1.06,1.5,2.11,2.25,3.17.88,1.24,2.03,2.4,3.59,2.76,1.34.31,2.63.24,3.91-.3,2.81-1.18,4.15-4.13,3.47-7.08-.36-1.56-1.25-2.99-2.35-4.14l-7.27,9.42c1.17.72,2.47,1.01,3.83,1.06,1.51.05,3.19-.7,4.24-1.76s1.82-2.75,1.76-4.24c-.15-3.34-2.64-5.89-6-6h0Z"/>
    <path class="cls-3" d="M189.21,476.02v-.1c-.28,1.01-.55,2.02-.83,3.03l.05-.09-2.15,2.15.09-.06-3.03.82h.1c-1.01-.28-2.02-.56-3.03-.83l.09.05-2.76-3.59.04.09v-3.19l-.03.1,1.54-2.65-.07.08,1.21-.94-.09.04,4.62-.6-.1-.02,3.59,2.76c-.64-1.01-1.28-2.02-1.92-3.02-.83-1.3-2.08-2.34-3.59-2.76s-3.35-.22-4.62.6-2.41,2.06-2.76,3.59-.27,3.25.6,4.62c.51.81,1.02,1.61,1.54,2.42.13.2.25.41.38.6.76,1.1,1.62,1.93,2.87,2.45,2.08.88,4.35.59,6.14-.79,1.55-1.2,2.37-2.94,2.46-4.89.1-2.19-1.31-4.21-3.09-5.32s-4.5-1.08-6.25.07-3.15,3.13-3.02,5.37c.1,1.59.6,3.09,1.76,4.24,1.04,1.04,2.75,1.82,4.24,1.76s3.16-.58,4.24-1.76,1.85-2.66,1.76-4.24h0Z"/>
  </g>
</svg>